<svg width="128" height="47" viewBox="0 0 128 47" fill="none" xmlns="http://www.w3.org/2000/svg">
<g filter="url(#filter0_d_423_4717)">
<path d="M10.384 36V10.8H20.752C22.984 10.8 24.892 11.16 26.476 11.88C28.084 12.6 29.32 13.632 30.184 14.976C31.048 16.32 31.48 17.916 31.48 19.764C31.48 21.612 31.048 23.208 30.184 24.552C29.32 25.896 28.084 26.928 26.476 27.648C24.892 28.368 22.984 28.728 20.752 28.728H12.976L15.064 26.532V36H10.384ZM15.064 27.036L12.976 24.768H20.536C22.6 24.768 24.148 24.336 25.18 23.472C26.236 22.584 26.764 21.348 26.764 19.764C26.764 18.156 26.236 16.92 25.18 16.056C24.148 15.192 22.6 14.76 20.536 14.76H12.976L15.064 12.456V27.036ZM48.3131 36.36C46.3451 36.36 44.5331 36.036 42.8771 35.388C41.2211 34.74 39.7811 33.84 38.5571 32.688C37.3331 31.512 36.3851 30.144 35.7131 28.584C35.0411 27 34.7051 25.272 34.7051 23.4C34.7051 21.528 35.0411 19.812 35.7131 18.252C36.3851 16.668 37.3331 15.3 38.5571 14.148C39.7811 12.972 41.2211 12.06 42.8771 11.412C44.5331 10.764 46.3331 10.44 48.2771 10.44C50.2451 10.44 52.0451 10.764 53.6771 11.412C55.3331 12.06 56.7731 12.972 57.9971 14.148C59.2211 15.3 60.1691 16.668 60.8411 18.252C61.5131 19.812 61.8491 21.528 61.8491 23.4C61.8491 25.272 61.5131 27 60.8411 28.584C60.1691 30.168 59.2211 31.536 57.9971 32.688C56.7731 33.84 55.3331 34.74 53.6771 35.388C52.0451 36.036 50.2571 36.36 48.3131 36.36ZM48.2771 32.256C49.5491 32.256 50.7251 32.04 51.8051 31.608C52.8851 31.176 53.8211 30.564 54.6131 29.772C55.4051 28.956 56.0171 28.02 56.4491 26.964C56.9051 25.884 57.1331 24.696 57.1331 23.4C57.1331 22.104 56.9051 20.928 56.4491 19.872C56.0171 18.792 55.4051 17.856 54.6131 17.064C53.8211 16.248 52.8851 15.624 51.8051 15.192C50.7251 14.76 49.5491 14.544 48.2771 14.544C47.0051 14.544 45.8291 14.76 44.7491 15.192C43.6931 15.624 42.7571 16.248 41.9411 17.064C41.1491 17.856 40.5251 18.792 40.0691 19.872C39.6371 20.928 39.4211 22.104 39.4211 23.4C39.4211 24.672 39.6371 25.848 40.0691 26.928C40.5251 28.008 41.1491 28.956 41.9411 29.772C42.7331 30.564 43.6691 31.176 44.7491 31.608C45.8291 32.04 47.0051 32.256 48.2771 32.256ZM66.8098 36V10.8H70.6618L86.4658 30.204H84.5578V10.8H89.2018V36H85.3498L69.5458 16.596H71.4538V36H66.8098ZM107.726 36.36C105.758 36.36 103.946 36.048 102.29 35.424C100.658 34.776 99.2303 33.876 98.0063 32.724C96.7823 31.548 95.8343 30.168 95.1623 28.584C94.4903 27 94.1543 25.272 94.1543 23.4C94.1543 21.528 94.4903 19.8 95.1623 18.216C95.8343 16.632 96.7823 15.264 98.0063 14.112C99.2543 12.936 100.706 12.036 102.362 11.412C104.018 10.764 105.83 10.44 107.798 10.44C109.934 10.44 111.854 10.788 113.558 11.484C115.286 12.18 116.738 13.2 117.914 14.544L114.962 17.424C113.978 16.44 112.91 15.72 111.758 15.264C110.63 14.784 109.382 14.544 108.014 14.544C106.694 14.544 105.47 14.76 104.342 15.192C103.214 15.624 102.242 16.236 101.426 17.028C100.61 17.82 99.9743 18.756 99.5183 19.836C99.0863 20.916 98.8703 22.104 98.8703 23.4C98.8703 24.672 99.0863 25.848 99.5183 26.928C99.9743 28.008 100.61 28.956 101.426 29.772C102.242 30.564 103.202 31.176 104.306 31.608C105.41 32.04 106.634 32.256 107.978 32.256C109.226 32.256 110.426 32.064 111.578 31.68C112.754 31.272 113.87 30.6 114.926 29.664L117.59 33.156C116.27 34.212 114.734 35.016 112.982 35.568C111.254 36.096 109.502 36.36 107.726 36.36ZM113.162 32.544V23.112H117.59V33.156L113.162 32.544Z" fill="black"/>
</g>
<defs>
<filter id="filter0_d_423_4717" x="0.382812" y="0.439941" width="127.531" height="45.92" filterUnits="userSpaceOnUse" color-interpolation-filters="sRGB">
<feFlood flood-opacity="0" result="BackgroundImageFix"/>
<feColorMatrix in="SourceAlpha" type="matrix" values="0 0 0 0 0 0 0 0 0 0 0 0 0 0 0 0 0 0 127 0" result="hardAlpha"/>
<feOffset/>
<feGaussianBlur stdDeviation="5"/>
<feComposite in2="hardAlpha" operator="out"/>
<feColorMatrix type="matrix" values="0 0 0 0 1 0 0 0 0 1 0 0 0 0 1 0 0 0 0.35 0"/>
<feBlend mode="normal" in2="BackgroundImageFix" result="effect1_dropShadow_423_4717"/>
<feBlend mode="normal" in="SourceGraphic" in2="effect1_dropShadow_423_4717" result="shape"/>
</filter>
</defs>
</svg>
