<svg xmlns="http://www.w3.org/2000/svg" xml:space="preserve" width="512" height="512" style="enable-background:new 0 0 512 512" viewBox="0 0 501.338 501.338">
  <path d="M7.136 403.204c-8.328 8.331-8.328 21.835 0 30.165l30.165 30.272c8.331 8.328 21.835 8.328 30.165 0l75.435-75.371-60.331-60.395-75.434 75.329zm90.517-90.41 60.331 60.331c25.493-25.493 70.101-3.136 123.072 2.389L95.243 189.7c5.546 52.992 27.882 97.622 2.41 123.094zm316.694 15.018c74.987-73.938 75.837-194.665 1.899-269.652l-.065-.066c-73.812-75.934-195.206-77.654-271.14-3.841-.719.699-1.432 1.403-2.14 2.113a151.461 151.461 0 0 0-48.341 102.4l217.387 217.387a151.463 151.463 0 0 0 102.4-48.341z" data-original="#000000"/>
  <circle cx="436.448" cy="437.338" r="64" data-original="#000000"/>
</svg>
