<svg xmlns="http://www.w3.org/2000/svg" version="1.1" xmlns:xlink="http://www.w3.org/1999/xlink" xmlns:svgjs="http://svgjs.com/svgjs" width="512" height="512" x="0" y="0" viewBox="0 0 512 512" style="enable-background:new 0 0 512 512" xml:space="preserve" class=""><g><path fill="#ffc943" d="m256 107.6-84.5 132c-6.5 10.2-20 13.1-30.2 6.6-.3-.2-.5-.4-.8-.5l-89.6-63.2 50.8 224C149 383 216.9 370.9 256 370.9s107 12.1 154.3 35.6l50.8-224-89.6 63.2c-9.9 7-23.5 4.6-30.5-5.3-.2-.3-.4-.5-.5-.8z" data-original="#ffc943"></path><path fill="#ffaa39" d="m418.3 371.1-8 35.3C363 382.9 295.1 370.8 256 370.8s-107 12.1-154.3 35.6l-8-35.3-42.9-188.7C75.3 222.2 95 254 124.9 288.3c33.4 38.2 85.8 48.4 146.7 49.4 58.6 1.1 123.6 19.2 146.7 33.4z" data-original="#ffaa39"></path><path fill="#ffc943" d="M77.4 420.5c0-14.2 8.7-27 22-32.2 52.3-20.8 117.1-31.4 156.6-31.4s104.3 10.6 156.6 31.4c13.3 5.2 22 18 22 32.2 0 23.4-22.8 40.2-45.1 33-47.2-15.3-99.6-23.1-133.4-23.1s-86.2 7.8-133.4 23.1c-22.4 7.3-45.3-9.5-45.3-33z" data-original="#ffc943"></path><path fill="#ffaa39" d="M432.2 433.1c-5.2 13.3-17.9 22-32.2 22.1-3.6 0-7.2-.6-10.6-1.7-47.2-15.3-99.6-23.1-133.4-23.1s-86.2 7.8-133.4 23.1c-22.3 7.2-45.1-9.5-45.1-33 0-10.1 4.4-19.7 12.1-26.2-.3 1.8-.5 3.6-.5 5.4-.4 23.4 22.1 40.6 44.5 33.8 47.5-14.5 100-21.4 133.8-20.8s86.1 9.3 133 25.5c10.8 3.7 22.7 1.9 31.8-5.1z" data-original="#ffaa39"></path><g fill="#faf180"><circle cx="256" cy="107.6" r="50.8" fill="#faf180" data-original="#faf180"></circle><circle cx="461.2" cy="182.4" r="50.8" fill="#faf180" data-original="#faf180"></circle><circle cx="50.8" cy="182.4" r="50.8" fill="#faf180" data-original="#faf180"></circle></g><path fill="#ed9928" d="M300.1 132.8c-13.9 24.4-45 32.9-69.4 19s-32.9-45-19-69.4c2.8-4.9 6.4-9.3 10.6-13-13.9 24.4-5.4 55.4 19 69.4 19 10.7 42.5 8.3 58.8-6zM505.3 207.6c-13.9 24.4-45 32.9-69.4 18.9-24.4-13.9-32.9-45-18.9-69.4 2.8-4.9 6.4-9.3 10.6-13-13.9 24.4-5.5 55.4 18.9 69.4 18.9 10.8 42.5 8.5 58.8-5.9zM95 207.6c-13.9 24.4-45 32.9-69.4 18.9-24.4-13.9-32.9-45-18.9-69.4 2.8-4.9 6.4-9.3 10.6-13-13.9 24.4-5.5 55.4 18.9 69.4 18.9 10.8 42.5 8.5 58.8-5.9z" data-original="#ed9928"></path></g></svg>
