<?xml version="1.0" encoding="UTF-8" standalone="no"?>
<!-- Created with Inkscape (http://www.inkscape.org/) -->

<svg
   width="9.1655903mm"
   height="9.1756439mm"
   viewBox="0 0 9.1655903 9.1756439"
   version="1.1"
   id="svg286"
   xml:space="preserve"
   inkscape:version="1.2.2 (732a01da63, 2022-12-09)"
   sodipodi:docname="games.svg"
   xmlns:inkscape="http://www.inkscape.org/namespaces/inkscape"
   xmlns:sodipodi="http://sodipodi.sourceforge.net/DTD/sodipodi-0.dtd"
   xmlns="http://www.w3.org/2000/svg"
   xmlns:svg="http://www.w3.org/2000/svg"><sodipodi:namedview
     id="namedview288"
     pagecolor="#ffffff"
     bordercolor="#000000"
     borderopacity="0.25"
     inkscape:showpageshadow="2"
     inkscape:pageopacity="0.0"
     inkscape:pagecheckerboard="0"
     inkscape:deskcolor="#d1d1d1"
     inkscape:document-units="mm"
     showgrid="false"
     inkscape:zoom="0.73851712"
     inkscape:cx="-179.41358"
     inkscape:cy="16.925809"
     inkscape:window-width="1350"
     inkscape:window-height="1032"
     inkscape:window-x="2252"
     inkscape:window-y="54"
     inkscape:window-maximized="0"
     inkscape:current-layer="layer1" /><defs
     id="defs283"><linearGradient
       id="paint0_linear_2100_21370"
       x1="-0.59933501"
       y1="25.962601"
       x2="33.382999"
       y2="25.962601"
       gradientUnits="userSpaceOnUse"><stop
         stop-color="#967CFD"
         id="stop294" /><stop
         offset="1"
         stop-color="#3177FF"
         id="stop296" /></linearGradient><linearGradient
       id="paint0_linear_2123_25809"
       x1="8.4367504"
       y1="0.82287598"
       x2="8.4367504"
       y2="15.6856"
       gradientUnits="userSpaceOnUse"><stop
         stop-color="#967CFD"
         id="stop314" /><stop
         offset="1"
         stop-color="#3177FF"
         id="stop316" /></linearGradient></defs><g
     inkscape:label="Layer 1"
     inkscape:groupmode="layer"
     id="layer1"
     transform="translate(-100.4172,-143.91218)"><g
       style="fill:none"
       id="g310"
       transform="matrix(0.26458333,0,0,0.26458333,100.4172,143.91218)"><ellipse
         cx="17.320801"
         cy="17.3398"
         rx="17.320801"
         ry="17.3398"
         fill="url(#paint0_linear_2100_21370)"
         id="ellipse290"
         style="opacity:0.2;fill:url(#paint0_linear_2100_21370)" /></g><g
       style="fill:none"
       id="g329"
       transform="matrix(0.26458333,0,0,0.26458333,102.76778,146.31607)"><path
         d="M 3.89537,15.6856 H 1.00539 c -0.454135,0 -0.825702,-0.3716 -0.825702,-0.8257 V 6.60282 c 0,-0.45414 0.371567,-0.82571 0.825702,-0.82571 h 2.88998 c 0.45413,0 0.8257,0.37157 0.8257,0.82571 v 8.25708 c 0,0.4541 -0.37157,0.8257 -0.8257,0.8257 z M 9.88174,0.822876 H 6.99176 c -0.45413,0 -0.8257,0.371564 -0.8257,0.825704 V 14.8599 c 0,0.4541 0.37157,0.8257 0.8257,0.8257 h 2.88998 c 0.45416,0 0.82566,-0.3716 0.82566,-0.8257 V 1.64858 c 0,-0.45414 -0.3715,-0.825704 -0.82566,-0.825704 z M 15.8681,7.42853 h -2.89 c -0.4541,0 -0.8257,0.37156 -0.8257,0.8257 v 6.60567 c 0,0.4541 0.3716,0.8257 0.8257,0.8257 h 2.89 c 0.4541,0 0.8257,-0.3716 0.8257,-0.8257 V 8.25423 c 0,-0.45414 -0.3716,-0.8257 -0.8257,-0.8257 z"
         fill="url(#paint0_linear_2123_25809)"
         id="path312"
         style="fill:url(#paint0_linear_2123_25809)" /></g></g></svg>
