<svg xmlns="http://www.w3.org/2000/svg" version="1.1" xmlns:xlink="http://www.w3.org/1999/xlink" xmlns:svgjs="http://svgjs.com/svgjs" width="512" height="512" x="0" y="0" viewBox="0 0 512 512" style="enable-background:new 0 0 512 512" xml:space="preserve" class=""><g><path fill="#4bae4f" fill-rule="evenodd" d="M256 0C114.8 0 0 114.8 0 256s114.8 256 256 256 256-114.8 256-256S397.2 0 256 0z" clip-rule="evenodd" data-original="#4bae4f" class=""></path><path fill="#ffffff" d="M206.7 373.1c-32.7-32.7-65.2-65.7-98-98.4-3.6-3.6-3.6-9.6 0-13.2l37.7-37.7c3.6-3.6 9.6-3.6 13.2 0l53.9 53.9L352.1 139c3.7-3.6 9.6-3.6 13.3 0l37.8 37.8c3.7 3.7 3.7 9.6 0 13.2L219.9 373.1c-3.6 3.7-9.5 3.7-13.2 0z" data-original="#ffffff" class=""></path></g></svg>
