<svg xmlns="http://www.w3.org/2000/svg" xml:space="preserve" viewBox="0 0 319.2397 383.467">
  <path d="M287.0868 236.392V159.6c0-28.011-8.918-54.59-25.79-76.865-14.101-18.617-33.332-33.16-54.939-41.717C203.3508 17.907 183.5378 0 159.6198 0s-43.733 17.906-46.74 41.018c-21.606 8.558-40.837 23.101-54.938 41.717-16.872 22.275-25.79 48.854-25.79 76.865v76.792l-30.549 61.1c-4.9866 9.9737 2.2662 21.7084 13.417 21.708h66.774c7.033 36.558 39.246 64.267 77.825 64.267 38.578 0 70.791-27.709 77.823-64.267h66.778c11.1509.0004 18.4037-11.7343 13.417-21.708zm-127.467 117.075c-21.938 0-40.573-14.413-46.933-34.267h93.865c-6.36 19.854-24.994 34.267-46.932 34.267zm64.266-64.267H39.2908l21.279-42.559a14.99 14.99 0 0 0 1.583-6.708V159.6c0-42.793 28.625-81.203 69.612-93.405 6.3598-1.8934 10.7199-7.7404 10.72-14.376v-4.686c0-9.447 7.687-17.133 17.135-17.133 9.447 0 17.133 7.686 17.133 17.133v4.686c0 6.636 4.36 12.483 10.72 14.376 40.987 12.202 69.614 50.611 69.614 93.405v80.333c0 2.329.542 4.625 1.583 6.708l21.279 42.559z" data-original="#000000"/>
</svg>
