<svg xmlns="http://www.w3.org/2000/svg" xml:space="preserve" viewBox="0 0 319.2399 383.467">
  <path d="M287.0858 236.393V159.6c0-28.01-8.918-54.589-25.789-76.864-14.102-18.616-33.333-33.16-54.939-41.718C203.3488 17.906 183.5368 0 159.6188 0c-23.918 0-43.732 17.906-46.739 41.018-21.606 8.558-40.837 23.102-54.938 41.718-16.872 22.275-25.79 48.854-25.79 76.864v76.793l-30.549 61.099c-4.9864 9.9733 2.2656 21.7076 13.416 21.708h289.2c11.1522.003 18.4065-11.7342 13.417-21.708zm-127.467 147.074c27.005 0 50.886-13.584 65.204-34.268H94.4138c14.319 20.684 38.2 34.268 65.205 34.268z" data-original="#000000"/>
</svg>
