<svg xmlns="http://www.w3.org/2000/svg" xml:space="preserve" width="368" height="355.856" viewBox="0 0 46 44.482">
  <path d="M30 29.046a7.008 7.008 0 0 0 7-7V7a7.008 7.008 0 0 0-7-7H7a7.008 7.008 0 0 0-7 7v15.046a7.008 7.008 0 0 0 7 7h.955v7.432a1.98 1.98 0 0 0 1.306 1.876 2.008 2.008 0 0 0 .7.127 1.979 1.979 0 0 0 1.51-.7l7.487-8.734z" data-original="#000000"/>
  <path d="M39.953 6.072c.028.306.047.615.047.928v15.046a10.011 10.011 0 0 1-10 10h-9.66l-2.576 3.005h9.277l7.49 8.731a1.981 1.981 0 0 0 1.509.7 2.038 2.038 0 0 0 .706-.127 1.981 1.981 0 0 0 1.3-1.873v-7.431H39a7.008 7.008 0 0 0 7-7V13a7.006 7.006 0 0 0-6.047-6.928Z" data-original="#000000"/>
</svg>
