<svg xmlns="http://www.w3.org/2000/svg" xml:space="preserve" width="512" height="512" style="enable-background:new 0 0 512 512" viewBox="0 0 409.6 409.6">
  <path d="M397.619 34.918c-8.192-8.704-19.814-13.722-31.795-13.722H327.68c.154-6.861.256-13.926.256-21.197H81.92c0 7.27.102 14.336.256 21.197h-38.4c-11.981 0-23.603 5.018-31.795 13.722C3.686 43.674-.614 55.654.102 67.789 6.963 182.17 65.997 253.952 159.59 264.602l-18.125 63.078c-21.555 0-39.014 17.459-39.014 39.014V409.6h205.005v-42.906c0-21.555-17.459-39.014-39.014-39.014l-18.125-63.078c93.389-10.752 152.371-82.483 159.181-196.813.716-12.083-3.584-24.064-11.879-32.871zM41.011 65.331c-.051-1.126.41-1.894.819-2.304.768-.819 1.69-.819 1.946-.819h40.346c6.093 80.538 23.859 126.208 41.114 152.013-65.69-27.546-81.358-101.12-84.225-148.89zm243.61 148.736c17.254-25.856 34.97-71.475 41.062-151.91h40.192c.307 0 1.178 0 1.946.819.41.41.87 1.178.819 2.304-2.918 47.77-18.534 121.139-84.019 148.787z" data-original="#000000"/>
</svg>
