<svg xmlns="http://www.w3.org/2000/svg" width="682.667" height="682.667" version="1.0" viewBox="0 0 512 512">
  <path d="M181 4.9c-38.1 12.5-71.9 32.7-100.6 60.4-23.2 22.3-38.8 43.4-52.6 71-50.1 100.7-31 219.3 48.3 298.8 50.2 50.4 119.9 78.1 189.9 75.6 54.8-2 101.5-17.9 145.5-49.6 47.2-33.9 81.5-83.7 97.5-141.5 3.5-12.8 3.6-14.7 1.1-20.3-2.6-5.7-8.4-8.7-15.6-8.1-4.4.4-6.4 1.3-11.9 5.4-15.8 11.6-25.9 17.9-38.1 23.9-28.3 13.8-52.7 19.5-83.9 19.5-51.5 0-99.3-19.7-135.6-55.9-36.7-36.7-56.5-84.1-56.4-135.6.1-44.3 13.1-83.9 38-115.8 6.3-8.1 8.1-13.4 6.5-18.9-2.3-7.6-9.3-12.9-16.8-12.7-2.1 0-9 1.8-15.3 3.8zm-28.4 57.3c-7.8 18.7-13.3 39.7-15.6 59.8-1.4 12.3-1.4 41 0 52.5 9.4 76.7 56.4 143.2 124.5 176.4 31.4 15.4 58.5 21.9 94 22.8 35.6.9 62.6-4.2 96.4-18.4 5.7-2.4 10.6-4.1 10.9-3.9.8.8-12 21.3-19.9 31.9C398.9 442.4 333 476 261 476c-50.5 0-94.8-14.7-135.4-44.8-27.5-20.5-51-49-66.9-81-15.9-32.1-22.9-62.4-22.9-98.7.1-31.5 4.5-55.4 15.4-83 16.3-41.3 46.2-78.4 83.3-103.2 7.1-4.8 21.2-13.2 22.2-13.3.1 0-1.8 4.6-4.1 10.2z"/>
</svg>
