<svg xmlns="http://www.w3.org/2000/svg" xml:space="preserve" width="512" height="512" style="enable-background:new 0 0 512 512" viewBox="0 0 64 64">
  <path d="M57 41.43v4.5c0 .63-.39 1.19-.98 1.41a38.45 38.45 0 0 1-11.71 2.33 4.028 4.028 0 0 0 1.091-2.75v-5.71c0-2.479-.87-4.89-2.46-6.8a8.986 8.986 0 0 0 4.449-1.351C51.6 34.04 57 36.36 57 41.43zM42.64 18.42c3.86 0 6.99 3.14 6.99 7s-3.13 7-6.99 7c-3.87 0-7-3.14-7-7s3.13-7 7-7zM34.2 21.2c0 4.96-4.03 8.99-8.99 8.99-4.97 0-8.99-4.03-8.99-8.99 0-4.97 4.02-9 8.99-9 4.96 0 8.99 4.03 8.99 9z" data-original="#000000"/>
  <path d="M43.4 41.21v5.71a2 2 0 0 1-1.311 1.88c-10.9 4-22.87 4-33.78 0A2 2 0 0 1 7 46.92v-5.71c.02-6.54 6.88-9.44 12.31-10.74 3.6 2.29 8.2 2.29 11.8 0 5.41 1.3 12.29 4.21 12.29 10.74z" data-original="#000000"/>
</svg>
