<svg xmlns="http://www.w3.org/2000/svg" xml:space="preserve" width="512" height="512" style="enable-background:new 0 0 512 512" viewBox="0 0 24 24">
  <path d="M10.13 11.51a.192.192 0 0 0-.12-.04.223.223 0 0 0-.13.04.238.238 0 0 0-.12.21v4.56a.238.238 0 0 0 .12.21.221.221 0 0 0 .25 0l3.99-2.27a.262.262 0 0 0 0-.44z" data-original="#000000"/>
  <path d="M20 5.25H4A2.748 2.748 0 0 0 1.25 8v12A2.748 2.748 0 0 0 4 22.75h16A2.748 2.748 0 0 0 22.75 20V8A2.748 2.748 0 0 0 20 5.25zm-5.14 10.27-3.98 2.28a1.826 1.826 0 0 1-.87.23 1.739 1.739 0 0 1-.88-.24 1.722 1.722 0 0 1-.87-1.51v-4.56a1.754 1.754 0 0 1 2.62-1.52l3.98 2.28a1.753 1.753 0 0 1 0 3.04z" data-original="#000000"/>
  <path d="M12 6.75a.744.744 0 0 1-.53-.22l-4-4a.75.75 0 0 1 1.06-1.06L12 4.939l3.47-3.469a.75.75 0 0 1 1.06 1.06l-4 4a.744.744 0 0 1-.53.22z" data-original="#000000"/>
</svg>
