<svg xmlns="http://www.w3.org/2000/svg" width="563.617" height="564.352" viewBox="830.698 -119.936 563.617 564.352"><path d="M1059.071-30.525h105.535V81.46h-105.535z" style="fill:#fff"/><path d="M1054.3 257.676h105.535v111.985H1054.3z"/><path d="M1103.214-119.684c-9.2.5-24.8 3.5-34.6 6.7-48.5 15.9-86.2 59.1-94.9 108.9-2.1 12.4-2 13.3 2.2 18.5 3.5 4.2 54.2 63.7 60.2 70.6 4.5 5-.5.9-49.8-41.5l-14.4-12.4.7 7.4c1.6 16.1 9.5 39.5 18.2 54 2.9 4.7 4.3 8 3.7 8.7-.4.7-8.9 8.3-18.8 16.9-9.9 8.6-19.8 17.3-22 19.3-2.2 2-7.4 6.5-11.5 10.1-4.1 3.6-8.8 7.7-10.5 9.2-1.6 1.4-4 3.5-5.1 4.5-29.6 25.5-30.3 26.2-28.2 32.4.5 1.4 9.8 11.4 20.7 22.2 19.4 19.3 19.9 19.7 24 19.7 3 0 4.8-.6 6.4-2.3 1.2-1.2 20.4-23 42.6-48.5 22.2-25.4 40.9-46.2 41.4-46.2s2.1.8 3.5 1.9c5.5 3.8 21.3 11.2 31.3 14.5 13.9 4.7 24.3 6.4 46.7 7.6 19.6 1 30.1 2.9 43.8 7.6 7.9 2.7 21.2 9 29.1 13.9l4.2 2.5 14.3-16.2c7.9-9 26.9-30.6 42.2-48.1 15.2-17.4 28.6-32.2 29.6-32.7 5.2-2.8 6.5-1.8 27.7 19.2 20.2 20.2 22.3 23 20.8 27.7-.5 1.7-39.5 36.6-72 64.5-4.4 3.8-11.8 10.3-16.5 14.5-4.7 4.1-8.7 7.6-8.8 7.7-.2.1 1.5 3.5 3.9 7.5 10.6 18.2 16.3 35.3 19.3 57.6.2 1.8.2 3.3 0 3.3-.4 0-57.6-48.6-66.4-56.4-4.7-4.2-4.8-4.3 32.6 39.4 18.2 21.2 33.3 39 33.7 39.7 1.2 2-3 23.4-6.8 34.2-17.2 49.3-57.3 83.6-109.5 93.6l-7.5 1.4 8-.5c55.1-3.7 113.8-28 158-65.4 10.8-9.2 30.5-29.5 39-40.3 33.2-42 53.7-92.6 59.6-146.7 1.4-13 1.3-44-.1-57.5-4.8-45.5-20-87.8-45.1-125.9-10.8-16.6-18.5-26-32.9-41-39.8-41.1-88.3-68.1-144-80-20-4.3-49.9-6.9-68-5.8Zm22.8 108.4c6.5 2.4 14.8 10.3 18.3 17.3 3.5 7.2 3.9 19.8.9 27.7-5.6 15-22.7 24.8-38.2 21.9-11.6-2.1-21.6-9.8-26.4-20.4-3.9-8.6-4-19.5-.2-27.9 5.3-11.5 15.7-19.3 27.6-20.8 7-.8 11.2-.3 18 2.2Z"/><path d="M1036.214-118.684c-9.2.5-24.8 3.5-34.6 6.7-48.5 15.9-86.2 59.1-94.9 108.9-2.1 12.4-2 13.3 2.2 18.5 3.5 4.2 54.2 63.7 60.2 70.6 4.5 5-.5.9-49.8-41.5l-14.4-12.4.7 7.4c1.6 16.1 9.5 39.5 18.2 54 2.9 4.7 4.3 8 3.7 8.7-.4.7-8.9 8.3-18.8 16.9-9.9 8.6-19.8 17.3-22 19.3-2.2 2-7.4 6.5-11.5 10.1-4.1 3.6-8.8 7.7-10.5 9.2-1.6 1.4-4 3.5-5.1 4.5-29.6 25.5-30.3 26.2-28.2 32.4.5 1.4 9.8 11.4 20.7 22.2 19.4 19.3 19.9 19.7 24 19.7 3 0 4.8-.6 6.4-2.3 1.2-1.2 20.4-23 42.6-48.5 22.2-25.4 40.9-46.2 41.4-46.2s2.1.8 3.5 1.9c5.5 3.8 21.3 11.2 31.3 14.5 13.9 4.7 24.3 6.4 46.7 7.6 19.6 1 30.1 2.9 43.8 7.6 7.9 2.7 21.2 9 29.1 13.9l4.2 2.5 14.3-16.2c7.9-9 26.9-30.6 42.2-48.1 15.2-17.4 28.6-32.2 29.6-32.7 5.2-2.8 6.5-1.8 27.7 19.2 20.2 20.2 22.3 23 20.8 27.7-.5 1.7-39.5 36.6-72 64.5-4.4 3.8-11.8 10.3-16.5 14.5-4.7 4.1-8.7 7.6-8.8 7.7-.2.1 1.5 3.5 3.9 7.5 10.6 18.2 16.3 35.3 19.3 57.6.2 1.8.2 3.3 0 3.3-.4 0-57.6-48.6-66.4-56.4-4.7-4.2-4.8-4.3 32.6 39.4 18.2 21.2 33.3 39 33.7 39.7 1.2 2-3 23.4-6.8 34.2-17.2 49.3-57.3 83.6-109.5 93.6l-7.5 1.4 8-.5c55.1-3.7 113.8-28 158-65.4 10.8-9.2 30.5-29.5 39-40.3 33.2-42 53.7-92.6 59.6-146.7 1.4-13 1.3-44-.1-57.5-4.8-45.5-20-87.8-45.1-125.9-10.8-16.6-18.5-26-32.9-41-39.8-41.1-88.3-68.1-144-80-20-4.3-49.9-6.9-68-5.8Zm22.8 108.4c6.5 2.4 14.8 10.3 18.3 17.3 3.5 7.2 3.9 19.8.9 27.7-5.6 15-22.7 24.8-38.2 21.9-11.6-2.1-21.6-9.8-26.4-20.4-3.9-8.6-4-19.5-.2-27.9 5.3-11.5 15.7-19.3 27.6-20.8 7-.8 11.2-.3 18 2.2Z" style="fill:#fff" transform="rotate(180 1079.007 162.74)"/></svg>