<?xml version="1.0" encoding="UTF-8" standalone="no"?>
<svg
   width="563.61664"
   height="564.35254"
   viewBox="830.698 -119.936 563.61663 564.35255"
   version="1.1"
   id="svg10"
   sodipodi:docname="yingyangV2-color.svg"
   inkscape:version="1.2.2 (732a01da63, 2022-12-09)"
   xmlns:inkscape="http://www.inkscape.org/namespaces/inkscape"
   xmlns:sodipodi="http://sodipodi.sourceforge.net/DTD/sodipodi-0.dtd"
   xmlns="http://www.w3.org/2000/svg"
   xmlns:svg="http://www.w3.org/2000/svg">
  <defs
     id="defs14" />
  <sodipodi:namedview
     id="namedview12"
     pagecolor="#ffffff"
     bordercolor="#000000"
     borderopacity="0.25"
     inkscape:showpageshadow="2"
     inkscape:pageopacity="0"
     inkscape:pagecheckerboard="0"
     inkscape:deskcolor="#d1d1d1"
     showgrid="false"
     inkscape:zoom="1.0386984"
     inkscape:cx="272.93774"
     inkscape:cy="318.66805"
     inkscape:window-width="1920"
     inkscape:window-height="1009"
     inkscape:window-x="1912"
     inkscape:window-y="-8"
     inkscape:window-maximized="1"
     inkscape:current-layer="svg10" />
  <path
     d="m 1059.0703,-30.524729 h 105.535 v 111.985 h -105.535 z"
     style="fill:#e04f5f;fill-opacity:1"
     id="path2" />
  <path
     d="m 1054.2993,257.67627 h 105.535 v 111.985 h -105.535 z"
     id="path4" />
  <path
     d="m 1121.7993,444.16427 c 9.2,-0.5 24.8,-3.5 34.6,-6.7 79.2141,-29.97643 101.8932,-98.84008 96,-151.5 -1.6,-16.1 -9.5,-39.5 -18.2,-54 -2.9,-4.7 -4.3,-8 -3.7,-8.7 0.4,-0.7 8.9,-8.3 18.8,-16.9 9.9,-8.6 19.8,-17.3 22,-19.3 2.2,-2 7.4,-6.5 11.5,-10.1 4.1,-3.6 8.8,-7.7 10.5,-9.2 1.6,-1.4 4,-3.5 5.1,-4.5 29.6,-25.5 30.3,-26.2 28.2,-32.4 -0.5,-1.4 -9.8,-11.4 -20.7,-22.2 -19.4,-19.3 -19.9,-19.7 -24,-19.7 -3,0 -4.8,0.6 -6.4,2.3 -1.2,1.2 -20.4,23 -42.6,48.5 -22.2,25.4 -40.9,46.2 -41.4,46.2 -0.5,0 -2.1,-0.8 -3.5,-1.9 -5.5,-3.8 -21.3,-11.2 -31.3,-14.5 -13.9,-4.7 -24.3,-6.4 -46.7,-7.6 -19.6,-1 -30.1,-2.9 -43.8,-7.6 -7.9,-2.7 -21.2,-9 -29.1,-13.9 l -4.2,-2.5 -14.3,16.2 c -7.9,9 -26.89996,30.6 -42.19996,48.1 -15.2,17.4 -28.6,32.2 -29.6,32.7 -5.2,2.8 -6.5,1.8 -27.7,-19.2 -20.2,-20.2 -22.3,-23 -20.8,-27.7 0.5,-1.7 39.5,-36.6 72,-64.5 4.4,-3.8 11.8,-10.3 16.5,-14.5 4.7,-4.1 8.7,-7.6 8.8,-7.7 0.2,-0.1 -1.5,-3.5 -3.9,-7.5 -39.7616,-90.2101085 -24.9181,-157.97273 97.09996,-211.4 l 7.5,-1.4 -8,0.5 c -55.1,3.7 -113.79996,28 -157.99996,65.4 -10.8,9.2 -30.5,29.5 -39,40.3 -33.2,42 -53.7,92.6 -59.6,146.7 -1.4,13 -1.3,44 0.1,57.5 4.8,45.5 20,87.8 45.1,125.9 10.8,16.6 18.5,26 32.9,41 39.8,41.1 88.3,68.1 143.99996,80 20,4.3 49.9,6.9 68,5.8 z m -22.8,-108.4 c -6.5,-2.4 -14.8,-10.3 -18.3,-17.3 -3.5,-7.2 -3.9,-19.8 -0.9,-27.7 5.6,-15 22.7,-24.8 38.2,-21.9 11.6,2.1 21.6,9.8 26.4,20.4 3.9,8.6 4,19.5 0.2,27.9 -5.3,11.5 -15.7,19.3 -27.6,20.8 -7,0.8 -11.2,0.3 -18,-2.2 z"
     style="fill:#e04f5f;fill-opacity:1"
     id="path8"
     sodipodi:nodetypes="cccccsssccccsccscccccccccccccccccccccccccccccccccc" />
  <path
     d="m 1103.2133,-119.68373 c -9.2,0.5 -24.8,3.5 -34.6,6.7 -67.0957,33.083278 -104.16559,75.919467 -95.99996,151.5 1.6,16.1 9.5,39.5 18.2,54 2.9,4.7 4.3,8 3.7,8.7 -0.4,0.7 -8.9,8.3 -18.8,16.9 -9.9,8.6 -19.8,17.3 -22,19.3 -2.2,2 -7.4,6.5 -11.5,10.1 -4.1,3.6 -8.8,7.7 -10.5,9.2 -1.6,1.4 -4,3.5 -5.1,4.5 -29.6,25.5 -30.3,26.2 -28.2,32.4 0.5,1.4 9.8,11.4 20.7,22.2 19.4,19.3 19.9,19.7 24,19.7 3,0 4.8,-0.6 6.4,-2.3 1.2,-1.2 20.4,-23 42.6,-48.5 22.19996,-25.4 40.89996,-46.2 41.39996,-46.2 0.5,0 2.1,0.8 3.5,1.9 5.5,3.8 21.3,11.2 31.3,14.5 13.9,4.7 24.3,6.4 46.7,7.6 19.6,1 30.1,2.9 43.8,7.6 7.9,2.7 21.2,9 29.1,13.9 l 4.2,2.5 14.3,-16.2 c 7.9,-9 26.9,-30.6 42.2,-48.1 15.2,-17.4 28.6,-32.2 29.6,-32.7 5.2,-2.8 6.5,-1.8 27.7,19.2 20.2,20.2 22.3,23 20.8,27.7 -0.5,1.7 -39.5,36.6 -72,64.5 -4.4,3.8 -11.8,10.3 -16.5,14.5 -4.7,4.1 -8.7,7.6 -8.8,7.7 16.3933,25.85031 31.8057,68.72122 16.3,125.3 -17.2,49.3 -57.3,83.6 -109.5,93.6 l -7.5,1.4 8,-0.5 c 55.1,-3.7 113.8,-28 158,-65.4 10.8,-9.2 30.5,-29.5 39,-40.3 33.2,-42 53.7,-92.6 59.6,-146.7 1.4,-13 1.3,-44 -0.1,-57.5 -4.8,-45.5 -20,-87.8 -45.1,-125.8999985 -10.8,-16.6 -18.5,-26.0000015 -32.9,-41.0000015 -39.8,-41.1 -88.3,-68.1 -144,-80 -20,-4.3 -49.9,-6.9 -68,-5.8 z m 22.8,108.4 c 6.5,2.4000015 14.8,10.30000147 18.3,17.3000015 3.5,7.1999985 3.9,19.7999985 0.9,27.6999985 -5.6,15 -22.7,24.8 -38.2,21.9 -11.6,-2.1 -21.6,-9.8 -26.4,-20.4 -3.9,-8.6 -4,-19.5 -0.2,-27.8999985 5.3,-11.5 15.7,-19.3000015 27.6,-20.8000015 7,-0.8 11.2,-0.3 18,2.2 z"
     id="path6"
     sodipodi:nodetypes="cccccsssccccsccscccccccccccccccccccccccccccccccccc" />
</svg>
