<?xml version="1.0" encoding="UTF-8" standalone="no"?>
<svg
   width="382.62085"
   height="383.12045"
   viewBox="830.698 -119.936 382.62084 383.12046"
   version="1.1"
   id="svg10"
   sodipodi:docname="yingyang-gray.svg"
   inkscape:version="1.2.2 (732a01da63, 2022-12-09)"
   xmlns:inkscape="http://www.inkscape.org/namespaces/inkscape"
   xmlns:sodipodi="http://sodipodi.sourceforge.net/DTD/sodipodi-0.dtd"
   xmlns="http://www.w3.org/2000/svg"
   xmlns:svg="http://www.w3.org/2000/svg">
  <defs
     id="defs14" />
  <sodipodi:namedview
     id="namedview12"
     pagecolor="#ffffff"
     bordercolor="#000000"
     borderopacity="0.25"
     inkscape:showpageshadow="2"
     inkscape:pageopacity="0"
     inkscape:pagecheckerboard="0"
     inkscape:deskcolor="#d1d1d1"
     showgrid="false"
     inkscape:zoom="0.73447068"
     inkscape:cx="316.5545"
     inkscape:cy="248.47826"
     inkscape:window-width="1350"
     inkscape:window-height="1000"
     inkscape:window-x="386"
     inkscape:window-y="25"
     inkscape:window-maximized="0"
     inkscape:current-layer="svg10" />
  <path
     d="m 985.73248,202.48608 h 71.64422 v -76.02295 h -71.64422 z"
     style="fill:#4d4d4d;fill-opacity:1;stroke-width:0.678867"
     id="path2" />
  <path
     d="m 982.4936,6.8358532 h 71.6443 V -69.187097 h -71.6443 z"
     id="path4"
     style="fill:#b3b3b3;stroke-width:0.678867" />
  <path
     d="m 1028.3171,-119.76474 c 6.2456,0.33943 16.836,2.37603 23.4889,4.54841 53.7758,20.350015 69.1719,67.099293 65.1712,102.848393 -1.0862,10.9297602 -6.4492,26.81525 -12.3554,36.65883 -1.9687,3.19067 -2.9191,5.43094 -2.5118,5.90614 0.2716,0.47521 6.0419,5.6346 12.7627,11.47286 6.7208,5.83826 13.4416,11.7444 14.9351,13.10214 1.4935,1.35773 5.0236,4.41263 7.807,6.85656 2.7833,2.44392 5.974,5.22727 7.1281,6.24558 1.0862,0.95041 2.7154,2.37603 3.4622,3.0549 20.0945,17.31111 20.5697,17.78632 19.1441,21.9953 -0.3395,0.95041 -6.6529,7.739077 -14.0526,15.070847 -13.17,13.10214 -13.5095,13.37369 -16.2928,13.37369 -2.0366,0 -3.2586,-0.40732 -4.3448,-1.5614 -0.8146,-0.81464 -13.8489,-15.61395 -28.9197,-32.925057 -15.0709,-17.24323 -27.7657,-31.36367 -28.1051,-31.36367 -0.3394,0 -1.4256,0.5431 -2.376,1.28985 -3.7338,2.57969 -14.4599,7.60331 -21.2486,9.84357 -9.4362,3.19068 -16.4965,4.34476 -31.7031,5.1594 -13.3058,0.67886 -20.4339,1.96871 -29.73438,5.15939 -5.36305,1.83294 -14.39198,6.1098 -19.75503,9.43625 l -2.85125,1.69717 -9.7078,-10.99765 c -5.36305,-6.1098 -18.2615,-20.77334 -28.64817,-32.65351 -10.31878,-11.8123 -19.4156,-21.85953 -20.09447,-22.19896 -3.53011,-1.90083 -4.41264,-1.22197 -18.80462,13.03425 -13.71312,13.71312 -15.13874,15.61394 -14.12044,18.80462 0.33943,1.15407 26.81525,24.84654 48.87844,43.78694 2.98702,2.579687 8.01063,6.992327 11.20131,9.843567 3.19068,2.78336 5.90614,5.1594 5.97403,5.22728 0.13578,0.0679 -1.0183,2.37604 -2.64758,5.09151 -26.99285,61.24069 -16.91608,107.24251 65.91796,143.51254 l 5.0915,0.95041 -5.4309,-0.33943 c -37.4056,-2.51181 -77.25508,-19.00829 -107.26101,-44.39792 -7.33177,-6.24558 -20.70545,-20.02659 -26.47582,-27.35835 -22.5384,-28.51243 -36.45518,-62.86311 -40.46049,-99.589827 -0.95042,-8.82528 -0.88253,-29.87016 0.0679,-39.03487 3.25857,-30.88846 13.57735,-59.6045398 30.61692,-85.46939 7.33176,-11.26919 12.55904,-17.65055 22.33473,-27.83355 27.01892,-27.901449 59.94398,-46.230863 97.75686,-54.309383 13.57734,-2.91913 33.87541,-4.68419 46.16291,-3.93743 z m -15.4781,73.589213 c -4.4127,1.62928 -10.0473,6.99233 -12.4233,11.7444 -2.37604,4.88784 -2.64758,13.44157 -0.61098,18.80462 3.80168,10.1830102 15.41028,16.8359102 25.93268,14.86720024 7.8749,-1.42563004 14.6636,-6.65290004 17.9221,-13.84890024 2.6476,-5.83826 2.7155,-13.23791 0.1358,-18.94039 -3.598,-7.80698 -10.6582,-13.10214 -18.7367,-14.12044 -4.7521,-0.5431 -7.6033,-0.20366 -12.2196,1.49351 z"
     style="fill:#4d4d4d;fill-opacity:1;stroke-width:0.678867"
     id="path8"
     sodipodi:nodetypes="cccccsssccccsccscccccccccccccccccccccccccccccccccc" />
  <path
     d="m 1015.6997,263.0132 c -6.2456,-0.33943 -16.83589,-2.37603 -23.48879,-4.54841 -45.54908,-22.45915 -70.71461,-51.53924 -65.17123,-102.84839 1.08619,-10.92976 6.44924,-26.81526 12.35538,-36.65883 1.96872,-3.19068 2.91913,-5.43094 2.51181,-5.90615 -0.27155,-0.4752 -6.04192,-5.63459 -12.7627,-11.47285 -6.72079,-5.838257 -13.44157,-11.744407 -14.93508,-13.102137 -1.49351,-1.35774 -5.02362,-4.41264 -7.80698,-6.85656 -2.78335,-2.44392 -5.97403,-5.22728 -7.1281,-6.24558 -1.08619,-0.95041 -2.71547,-2.37603 -3.46223,-3.0549 -20.09447,-17.31112 -20.56967,-17.78632 -19.14405,-21.9953 0.33943,-0.95041 6.6529,-7.73909 14.05255,-15.07085 13.17003,-13.10214 13.50946,-13.37369 16.29281,-13.37369 2.03661,0 3.25857,0.40732 4.34476,1.5614 0.81464,0.81464 13.84889,15.61394 28.91974,32.92506 15.07083,17.24323 27.76564,31.36367 28.10508,31.36367 0.33943,0 1.42562,-0.5431 2.37603,-1.28985 3.73377,-2.5797 14.45988,-7.60332 21.24855,-9.84358 9.43625,-3.19067 16.49645,-4.34475 31.70305,-5.15939 13.3058,-0.67887 20.434,-1.96871 29.7344,-5.15939 5.3631,-1.83294 14.392,-6.10981 19.7551,-9.43626 l 2.8512,-1.69716 9.7078,10.99765 c 5.3631,6.1098 18.2615,20.77333 28.6482,32.65351 10.3188,11.812287 19.4156,21.859527 20.0945,22.198957 3.5301,1.90083 4.4126,1.22196 18.8046,-13.03425 13.7131,-13.713117 15.1387,-15.613947 14.1204,-18.804617 -0.3394,-1.15408 -26.8152,-24.84655 -48.8784,-43.78694 -2.987,-2.5797 -8.0106,-6.99233 -11.2013,-9.84358 -3.1907,-2.78335 -5.9061,-5.15939 -5.974,-5.22727 11.1288,-17.54893 21.5918,-46.65259 11.0655,-85.06207 -11.6765,-33.468159 -38.8991,-56.753303 -74.336,-63.541983 l -5.0915,-0.95041 5.431,0.33943 c 37.4056,2.51181 77.2551,19.008287 107.261,44.397923 7.3318,6.24558 20.7054,20.02658 26.4758,27.35835 22.5384,28.51243 36.4552,62.86311 40.4605,99.58983 0.9504,8.82527 0.8825,29.87016 -0.068,39.03487 -3.2585,30.888457 -13.5773,59.604537 -30.6169,85.469377 -7.3318,11.2692 -12.559,17.65055 -22.3347,27.83356 -27.0189,27.90145 -59.944,46.23086 -97.7569,54.30938 -13.5774,2.91913 -33.8755,4.68419 -46.163,3.93743 z m 15.4782,-73.58921 c 4.4126,-1.62928 10.0472,-6.99233 12.4233,-11.7444 2.376,-4.88785 2.6475,-13.44157 0.6109,-18.80463 -3.8016,-10.183 -15.4102,-16.8359 -25.9327,-14.86719 -7.8748,1.42562 -14.6635,6.6529 -17.9221,13.84889 -2.64757,5.83826 -2.71545,13.23792 -0.1358,18.9404 3.598,7.80697 10.6583,13.10214 18.7368,14.12044 4.752,0.54309 7.6033,0.20366 12.2196,-1.49351 z"
     id="path6"
     sodipodi:nodetypes="cccccsssccccsccscccccccccccccccccccccccccccccccccc"
     style="fill:#b3b3b3;stroke-width:0.678867" />
</svg>
