<svg xmlns="http://www.w3.org/2000/svg" xml:space="preserve" width="512" height="512" style="enable-background:new 0 0 512 512" viewBox="0 0 16.933 16.933">
  <path d="M4.213.529A3.68 3.68 0 0 0 .537 4.212L.53 9.302a3.664 3.664 0 0 0 3.41 3.657v3.18a.265.265 0 0 0 .452.187l3.333-3.34h5.005a3.677 3.677 0 0 0 3.675-3.683v-5.09A3.67 3.67 0 0 0 12.738.528zM5.82 5.964c.436 0 .794.359.794.794 0 .435-.358.794-.794.794s-.793-.359-.793-.794c0-.435.358-.794.793-.794zm2.646 0c.435 0 .793.359.793.794a.798.798 0 0 1-.793.794.798.798 0 0 1-.794-.794c0-.435.358-.794.794-.794zm2.646 0c.435 0 .794.359.794.794a.798.798 0 0 1-.794.794.798.798 0 0 1-.794-.794c0-.435.359-.794.794-.794z" data-original="#000000" paint-order="fill markers stroke"/>
</svg>
