<svg xmlns="http://www.w3.org/2000/svg" xml:space="preserve" viewBox="0 0 68 104"><rect width="100%" height="100%" fill="rgba(255,255,255,0)"/><path fill="#33c47f" d="M0 0v80.5L34.3 104 68 80.5V0z" style="is-custom-font:none;font-file-url:none" vector-effect="non-scaling-stroke"/><path fill="#fff" d="M353.2 241.3c-12.8 4.3-25.6 10-37 17.1 35.6 28.5 59.8 69.7 62.6 116.7v15.7c0 14.2-1.4 28.5-5.7 41.3-10 38.4-34.2 72.6-65.5 95.4-15.7 11.4-32.7 19.9-51.2 24.2-15.7 4.3-29.9 7.1-45.5 7.1-92.5 0-167.9-75.4-167.9-166.5 0-44.1 17.1-85.4 48.4-116.7-1.4-17.1-2.8-32.7-2.8-47v-1.4C37.2 265.5 7.3 325.3 7.3 389.3c0 112.4 92.5 204.9 204.9 204.9 31.3 0 62.6-7.1 91.1-21.3 17.1-8.5 34.2-19.9 48.4-32.7 39.9-35.6 62.6-84 65.5-136.6v-14.2c0-15.7-1.4-29.9-5.7-44.1-8.5-39.9-28.4-75.5-58.3-104zm169.3-14.2c0 15.7-1.4 31.3-4.3 45.5 31.3 31.3 48.4 72.6 48.4 116.7 0 92.5-75.4 166.5-167.9 166.5-14.2 0-28.5-1.4-42.7-5.7-11.4 10-24.2 18.5-37 27 25.6 10 51.2 15.7 79.7 15.7 112.4 0 204.9-91.1 204.9-204.9.1-62.6-29.8-122.4-81.1-160.8zm-123.8-42.7c-31.3 0-62.6 7.1-91.1 21.3-17.1 8.5-34.2 19.9-48.4 32.7-31.3 28.5-52.7 65.5-61.2 106.7-2.8 14.2-4.3 28.5-4.3 44.1v14.2c2.8 51.2 25.6 99.6 64 135.2 12.8-4.3 25.6-10 37-17.1-28.5-22.8-49.8-54.1-58.4-89.7-2.8-14.2-5.7-28.5-5.7-42.7v-15.7c5.7-48.4 31.3-92.5 71.2-121 15.7-11.4 32.7-19.9 51.2-24.2 15.7-4.3 29.9-7.1 45.5-7.1 21.3 0 42.7 4.3 61.2 11.4v-5.7c0-11.4-1.4-24.2-4.3-34.2-16.8-5.4-36.8-8.2-56.7-8.2zm-92.5 212.1c-21.3 0-42.7-4.3-61.2-11.4v5.7c0 11.4 1.4 24.2 4.3 34.2 17.1 5.7 37 8.5 56.9 8.5s39.9-2.8 58.4-8.5c2.8-11.4 4.3-22.8 4.3-34.2v-7.1c-21.4 8.5-41.3 12.8-62.7 12.8zm0-372.9c-108.2 0-197.8 84-204.9 192.1v12.8c0 15.7 1.4 29.9 5.7 44.1 10 47 37 88.2 74 118.1v-1.4c0-14.2 1.4-29.9 4.3-44.1-25.6-27-42.7-64-47-101.1v-15.7c0-14.2 1.4-28.5 5.7-41.3C162.5 113.2 229.4 62 306.2 62S450 113.2 468.5 187.2c2.8 14.2 5.7 27 5.7 41.3v15.7c-2.8 38.4-19.9 74-47 101.1 2.8 14.2 4.3 29.9 4.3 44.1v1.4c38.4-29.9 65.5-71.2 75.4-118.1 2.8-15.7 5.7-29.9 5.7-44.1v-14.2C504 107.5 413 23.6 306.2 23.6zm-93.9 160.8c-19.9 0-39.9 2.8-58.4 8.5-2.8 11.4-4.3 22.8-4.3 34.2v7.1c19.9-8.5 41.3-11.4 61.2-11.4 14.2 0 28.5 1.4 42.7 5.7 11.4-10 24.2-18.5 37-27-24.1-11.4-51.2-17.1-78.2-17.1z" style="is-custom-font:none;font-file-url:none" transform="matrix(.073 0 0 .073 11.69 29.44)" vector-effect="non-scaling-stroke"/></svg>
