<svg xmlns="http://www.w3.org/2000/svg" xml:space="preserve" width="68" height="104"><rect width="100%" height="100%" fill="rgba(255,255,255,0)"/><g><path d="M0 0v80.5L34.3 104 68 80.5V0z" style="stroke:none;stroke-width:0;stroke-dasharray:none;stroke-linecap:butt;stroke-dashoffset:0;stroke-linejoin:miter;stroke-miterlimit:4;is-custom-font:none;font-file-url:none;fill:#4180db;fill-rule:nonzero;opacity:1" vector-effect="non-scaling-stroke"/><path d="m323.8 497.3-12.4 21-5 7.4-4.9-7.4-14.8-23.5-29.6-48.2-135.9-226c-2.5 12.4-3.7 24.7-3.7 35.8 0 7.4 0 16.1 1.2 24.7l77.8 127.3 42 70.4 68 111.2 60.5-98.9c-14.8 2.5-29.6 5-43.2 6.2zm-3.7-9.9h-24.7l-21-35.8c11.1 1.2 21 2.5 32.1 2.5 14.8 0 29.7-1.2 44.5-4.9 25.9-6.2 50.7-17.3 72.9-33.4 43.2-32.1 72.9-79.1 80.3-131l34.6-53.1c1.2 8.6 1.2 18.5 1.2 27.2 0 100.1-65.5 187.8-163.1 218.7-18.5 4.9-37 8.6-56.8 9.8zM148.4 136.5c-16.1 19.8-27.2 43.2-34.6 68-4.9 16.1-7.4 34.6-7.4 51.9 0 8.7 0 18.5 1.2 27.2 7.4 51.9 35.8 100.1 79.1 131l34.6 56.8C132.3 436.8 73 352.8 73 257.6c0-14.8 1.2-29.7 3.7-43.3 3.7-18.5 8.7-37.1 17.3-54.4 5-7.4 8.7-16.1 13.6-23.5h40.8v.1zm458.4-44.4-71.7 118.6-42 69.2-77.8 127.3c-17.3 12.4-35.8 21-55.6 27.2L498 210.7l29.6-48.2 16.1-27.2 4.9-8.7h-38.3c-7.4-12.4-16.1-23.5-25.9-33.4V92h122.4v.1zM4.2 92l391.2.1c16.1 9.9 30.9 19.8 44.5 33.4H64.3l4.9 8.6L84 158.8c-6.1 13.6-11 27.2-14.7 40.7L4.2 92zm209.6-11.1h-59.3c42-34.6 95.1-54.4 150.8-54.4 60.5 0 118.6 22.2 161.9 64.3 13.6 13.6 25.9 28.4 35.8 43.2 4.9 7.4 9.9 16.1 12.4 21l-21 35.8c-8.7-23.5-21-45.7-38.3-65.5-16.1-17.2-35.9-33.2-58.1-44.4-28.4-14.8-60.5-22.2-92.7-22.2-30.9 0-63 8.6-91.5 22.2z" style="stroke:none;stroke-width:0;stroke-dasharray:none;stroke-linecap:butt;stroke-dashoffset:0;stroke-linejoin:miter;stroke-miterlimit:4;is-custom-font:none;font-file-url:none;fill:#fff;fill-rule:nonzero;opacity:1" transform="translate(9.713 27.494) scale(.0795)" vector-effect="non-scaling-stroke"/></g></svg>