<svg xmlns="http://www.w3.org/2000/svg" width="382.621" height="383.12" viewBox="830.698 -119.936 382.621 383.12">
  <path d="M985.732 202.486h71.645v-76.023h-71.645z" style="fill:#4d4d4d;fill-opacity:1;stroke-width:.678867"/>
  <path d="M982.494 6.836h71.644v-76.023h-71.644z" style="fill:#b3b3b3;stroke-width:.678867"/>
  <path d="M1028.317-119.765c6.246.34 16.836 2.376 23.489 4.549 53.776 20.35 69.172 67.099 65.171 102.848-1.086 10.93-6.449 26.815-12.355 36.659-1.969 3.19-2.92 5.43-2.512 5.906.272.475 6.042 5.635 12.763 11.473 6.72 5.838 13.441 11.744 14.935 13.102 1.493 1.358 5.023 4.413 7.807 6.857 2.783 2.444 5.974 5.227 7.128 6.245 1.086.95 2.715 2.376 3.462 3.055 20.095 17.311 20.57 17.786 19.144 21.995-.34.95-6.653 7.74-14.052 15.071-13.17 13.102-13.51 13.374-16.293 13.374-2.037 0-3.259-.407-4.345-1.561-.815-.815-13.849-15.614-28.92-32.926-15.07-17.243-27.765-31.363-28.105-31.363-.34 0-1.425.543-2.376 1.29-3.734 2.58-14.46 7.603-21.248 9.843-9.437 3.19-16.497 4.345-31.703 5.16-13.306.678-20.434 1.968-29.735 5.159-5.363 1.833-14.392 6.11-19.755 9.436l-2.851 1.697-9.708-10.997c-5.363-6.11-18.261-20.774-28.648-32.654-10.319-11.812-19.416-21.86-20.095-22.199-3.53-1.9-4.412-1.222-18.804 13.035-13.713 13.713-15.139 15.613-14.12 18.804.339 1.154 26.815 24.847 48.878 43.787 2.987 2.58 8.01 6.992 11.201 9.844 3.19 2.783 5.906 5.16 5.974 5.227.136.068-1.018 2.376-2.647 5.091-26.993 61.241-16.917 107.243 65.918 143.513l5.091.95-5.43-.339c-37.407-2.512-77.256-19.008-107.262-44.398-7.332-6.246-20.705-20.027-26.476-27.358-22.538-28.513-36.455-62.863-40.46-99.59-.95-8.825-.883-29.87.068-39.035 3.258-30.888 13.577-59.605 30.617-85.47 7.331-11.269 12.559-17.65 22.334-27.833 27.02-27.901 59.944-46.23 97.757-54.31 13.578-2.918 33.876-4.684 46.163-3.937zm-15.478 73.59c-4.413 1.629-10.047 6.992-12.423 11.744-2.376 4.888-2.648 13.441-.611 18.804 3.801 10.184 15.41 16.836 25.932 14.868 7.875-1.426 14.664-6.653 17.922-13.85 2.648-5.837 2.716-13.237.136-18.94-3.598-7.807-10.658-13.102-18.736-14.12-4.753-.543-7.604-.204-12.22 1.493z" style="fill:#4d4d4d;fill-opacity:1;stroke-width:.678867"/>
  <path d="M1015.7 263.013c-6.246-.34-16.836-2.376-23.49-4.548-45.548-22.46-70.714-51.54-65.17-102.849 1.086-10.93 6.449-26.815 12.355-36.658 1.969-3.191 2.92-5.431 2.512-5.907-.272-.475-6.042-5.634-12.763-11.472-6.72-5.839-13.441-11.745-14.935-13.103-1.493-1.357-5.024-4.412-7.807-6.856-2.783-2.444-5.974-5.227-7.128-6.246a337.325 337.325 0 0 1-3.462-3.055c-20.095-17.31-20.57-17.786-19.144-21.995.34-.95 6.653-7.739 14.052-15.07 13.17-13.103 13.51-13.374 16.293-13.374 2.037 0 3.259.407 4.345 1.561.814.815 13.849 15.614 28.92 32.925 15.07 17.243 27.765 31.364 28.105 31.364.34 0 1.425-.543 2.376-1.29 3.733-2.58 14.46-7.603 21.248-9.844 9.437-3.19 16.497-4.344 31.703-5.16 13.306-.678 20.434-1.968 29.735-5.159 5.363-1.832 14.392-6.11 19.755-9.436l2.851-1.697 9.708 10.998c5.363 6.11 18.261 20.773 28.648 32.653 10.319 11.813 19.416 21.86 20.095 22.2 3.53 1.9 4.412 1.221 18.804-13.035 13.713-13.713 15.139-15.614 14.12-18.805-.339-1.154-26.815-24.846-48.878-43.787-2.987-2.58-8.01-6.992-11.201-9.843-3.19-2.784-5.906-5.16-5.974-5.227 11.129-17.55 21.592-46.653 11.065-85.063-11.676-33.468-38.899-56.753-74.336-63.542l-5.091-.95 5.43.34c37.406 2.511 77.256 19.008 107.262 44.397 7.332 6.246 20.705 20.027 26.476 27.359 22.538 28.512 36.455 62.863 40.46 99.59.95 8.825.883 29.87-.068 39.034-3.258 30.889-13.577 59.605-30.617 85.47-7.332 11.269-12.559 17.65-22.335 27.833-27.018 27.902-59.944 46.231-97.756 54.31-13.578 2.919-33.876 4.684-46.163 3.937zm15.478-73.589c4.412-1.63 10.047-6.992 12.423-11.744 2.376-4.888 2.648-13.442.611-18.805-3.802-10.183-15.41-16.836-25.933-14.867-7.874 1.425-14.663 6.653-17.922 13.849-2.647 5.838-2.715 13.238-.136 18.94 3.598 7.807 10.659 13.102 18.737 14.12 4.752.544 7.604.204 12.22-1.493z" style="fill:#b3b3b3;stroke-width:.678867"/>
</svg>
