<svg xmlns="http://www.w3.org/2000/svg" xml:space="preserve" width="68" height="104"><rect width="100%" height="100%" fill="rgba(255,255,255,0)"/><g><path d="M0 0v80.5L34.3 104 68 80.5V0z" style="stroke:none;stroke-width:0;stroke-dasharray:none;stroke-linecap:butt;stroke-dashoffset:0;stroke-linejoin:miter;stroke-miterlimit:4;is-custom-font:none;font-file-url:none;fill:#ff6950;fill-rule:nonzero;opacity:1" vector-effect="non-scaling-stroke"/><path d="M305.5 568.6 181.7 496v-86.8l123.8 72.6 152.3-88.2 74-42.7v85.4L305.5 568.6zM79.2 172.9l125.2-72.6 72.6 44.1-123.8 71.2-1.4 263.3-72.6-42.7V172.9zm226.3-9.9 89.7 52.7 32.7 18.5v140.9l-123.8 71.2-121-71.2V232.7L305.5 163zm224.9 9.9v143.7l-74 42.7V215.6l-47-27-95.4-56.9-81.1-49.8 71.2-41.3 226.3 132.3zM305.5 6.4 49.3 155.9v298.9l256.2 149.4 256.2-149.4V155.9L305.5 6.4z" style="stroke:none;stroke-width:0;stroke-dasharray:none;stroke-linecap:butt;stroke-dashoffset:0;stroke-linejoin:miter;stroke-miterlimit:4;is-custom-font:none;font-file-url:none;fill:#fff;fill-rule:nonzero;opacity:1" transform="matrix(.08 0 0 .08 9.56 27.576)" vector-effect="non-scaling-stroke"/></g></svg>
