<svg xmlns="http://www.w3.org/2000/svg" xml:space="preserve" width="356.865" height="61.781" viewBox="0 0 94.421 16.346">
  <g style="fill:#b3b3b3">
    <path d="M82.415-26.787 70.65-25.049a4.563 4.563 0 0 0-.182 1.296c0 .843.165 1.535.497 2.077a4.1 4.1 0 0 0 1.331 1.31 8.383 8.383 0 0 0 1.784.813c.662.21 1.317.391 1.964.542a19.75 19.75 0 0 1 1.807.451c.541.15.978.354 1.309.61.331.24.497.572.497.993 0 .332-.105.625-.316.881-.21.256-.542.459-.994.61-.436.135-1.016.203-1.738.203-.949 0-1.89-.15-2.822-.452-.918-.316-1.716-.715-2.393-1.197l-1.242 2.755c.707.542 1.64.986 2.8 1.332a13.17 13.17 0 0 0 3.635.497c1.505 0 2.746-.226 3.725-.677.993-.452 1.738-1.047 2.235-1.784.497-.738.745-1.55.745-2.438 0-.828-.173-1.513-.52-2.055a3.892 3.892 0 0 0-1.309-1.31 7.545 7.545 0 0 0-1.806-.79 28.986 28.986 0 0 0-1.965-.519 43.539 43.539 0 0 1-1.783-.452c-.542-.15-.978-.346-1.31-.587a1.2 1.2 0 0 1-.496-.993c0-.347.098-.647.293-.903.196-.271.52-.49.97-.655.452-.166 1.032-.249 1.74-.249.707 0 1.43.106 2.167.317a9.236 9.236 0 0 1 2.212.925zM53.465-22.51v2.957c0 2.318.633 4.101 1.897 5.35 1.264 1.25 3.018 1.875 5.26 1.875 2.243 0 3.997-.625 5.261-1.874 1.265-1.25 1.897-3.033 1.897-5.351v-5.072l-3.612.533v4.403c0 1.505-.31 2.59-.926 3.252-.618.662-1.483.993-2.597.993-1.113 0-1.979-.331-2.596-.993-.617-.663-.926-1.747-.926-3.252v-3.362zM.184-14.64l-5.053.747.558 1.294h3.612zM11.087-16.25l-3.635.537v3.114H19.69v-2.935h-8.602zM35.622-19.875l-13.02 1.924v5.352h3.657v-4.403h3.184c.057 0 .113-.003.17-.004l3.036 4.407h3.95l-3.53-5.067.031-.013c1.024-.452 1.814-1.1 2.371-1.942a4.89 4.89 0 0 0 .151-.254zM46.9-21.54l-7.013 1.035c.07.048.14.095.212.14a8.383 8.383 0 0 0 1.784.812c.663.21 1.317.391 1.964.542a19.75 19.75 0 0 1 1.807.451c.541.15.978.354 1.309.61.331.24.497.572.497.993 0 .332-.105.625-.316.881-.21.256-.542.459-.993.61-.437.135-1.017.203-1.74.203-.948 0-1.888-.15-2.821-.452-.918-.316-1.716-.715-2.393-1.197l-1.242 2.755c.707.542 1.64.986 2.8 1.332a13.17 13.17 0 0 0 3.635.497c1.505 0 2.747-.226 3.725-.677.993-.452 1.738-1.047 2.235-1.784.497-.738.745-1.55.745-2.438 0-.828-.173-1.513-.52-2.055a3.892 3.892 0 0 0-1.309-1.31 7.545 7.545 0 0 0-1.806-.79c-.185-.056-.373-.106-.56-.159z" style="font-weight:700;font-size:22.5778px;font-family:Montserrat;-inkscape-font-specification:&quot;Montserrat, Bold&quot;;text-align:center;text-anchor:middle;fill:#b3b3b3;stroke-width:1.32292" transform="translate(11.13 28.675)"/>
  </g>
  <path d="M70.998-25.89c-.146.27-.263.55-.35.84l11.767-1.737.199-.488a7.225 7.225 0 0 0-.458-.264zM64.168-24.092l3.612-.533v-.79l-3.612.533zM53.465-22.51l3.658-.54v-.79l-3.658.54zM.184-14.64l.366-.844-5.74.848.321.743zM11.087-16.25v-.79l-3.635.537v.79zM35.622-19.875c.152-.268.279-.55.38-.846l-13.4 1.98v.79zM44.925-22.039l-5.79.855c.222.257.473.484.752.68l7.013-1.037c-.465-.13-.932-.253-1.405-.36-.198-.046-.381-.092-.57-.138z" style="font-weight:700;font-size:22.5778px;font-family:Montserrat;-inkscape-font-specification:&quot;Montserrat, Bold&quot;;text-align:center;text-anchor:middle;fill:#fff;stroke-width:1.32292" transform="translate(11.13 28.675)"/>
  <g style="fill:#4d4d4d">
    <path d="M57.123-23.84v-4.563h-3.658v5.102zM70.998-25.89l11.158-1.65a8.567 8.567 0 0 0-2.094-.774 12.057 12.057 0 0 0-2.935-.36c-1.49 0-2.732.225-3.725.677-.979.436-1.716 1.031-2.213 1.784-.069.105-.132.213-.19.322zM64.168-24.882l3.612-.534v-2.987h-3.612ZM22.602-18.741l13.4-1.98a6.002 6.002 0 0 0 .304-1.948c0-1.189-.278-2.213-.835-3.07-.557-.858-1.347-1.513-2.37-1.965-1.024-.466-2.243-.7-3.658-.7h-6.841zm3.657-6.682h2.98c1.13 0 1.973.24 2.53.722.557.482.835 1.16.835 2.032 0 .858-.278 1.535-.835 2.032-.557.482-1.4.722-2.53.722h-2.98zM7.452-16.503l3.635-.537v-2.152h7.338v-2.845h-7.338v-3.432h8.309v-2.934H7.452ZM-5.19-14.636l5.74-.848 5.593-12.92H2.507l-4.879 11.289-4.806-11.288h-3.952zM44.931-28.675c-1.49 0-2.732.226-3.725.678-.979.436-1.716 1.031-2.213 1.784a4.405 4.405 0 0 0-.722 2.46c0 .843.166 1.535.497 2.077.112.176.235.34.367.492l5.79-.855c-.426-.104-.837-.21-1.213-.314-.542-.15-.978-.346-1.31-.587a1.2 1.2 0 0 1-.496-.993c0-.347.098-.647.293-.903.196-.271.52-.49.971-.655.452-.166 1.031-.249 1.739-.249.707 0 1.43.106 2.167.317a9.239 9.239 0 0 1 2.213.925l1.129-2.777c-.738-.466-1.588-.813-2.552-1.039a12.057 12.057 0 0 0-2.935-.36z" style="font-weight:700;font-size:22.5778px;font-family:Montserrat;-inkscape-font-specification:&quot;Montserrat, Bold&quot;;text-align:center;text-anchor:middle;fill:#4d4d4d;stroke-width:1.32292" transform="translate(11.13 28.675)"/>
  </g>
</svg>
