<?xml version="1.0" encoding="UTF-8" standalone="no"?>
<!-- Created with Inkscape (http://www.inkscape.org/) -->

<svg
   width="94.420593mm"
   height="16.346291mm"
   viewBox="0 0 94.420593 16.346291"
   version="1.1"
   id="svg5"
   sodipodi:docname="gray-vertical-split.svg"
   inkscape:version="1.2.2 (732a01da63, 2022-12-09)"
   xml:space="preserve"
   xmlns:inkscape="http://www.inkscape.org/namespaces/inkscape"
   xmlns:sodipodi="http://sodipodi.sourceforge.net/DTD/sodipodi-0.dtd"
   xmlns="http://www.w3.org/2000/svg"
   xmlns:svg="http://www.w3.org/2000/svg"><sodipodi:namedview
     id="namedview7"
     pagecolor="#ffffff"
     bordercolor="#000000"
     borderopacity="0.25"
     inkscape:showpageshadow="2"
     inkscape:pageopacity="0"
     inkscape:pagecheckerboard="0"
     inkscape:deskcolor="#d1d1d1"
     inkscape:document-units="mm"
     showgrid="false"
     inkscape:zoom="3.6"
     inkscape:cx="182.5"
     inkscape:cy="-8.8888889"
     inkscape:window-width="1920"
     inkscape:window-height="1009"
     inkscape:window-x="1912"
     inkscape:window-y="-8"
     inkscape:window-maximized="1"
     inkscape:current-layer="svg5" /><defs
     id="defs2" /><g
     id="g4324"
     inkscape:label="bottom"
     style="fill:#b3b3b3"
     transform="translate(11.129553,28.674736)"><path
       id="path4306"
       style="font-weight:bold;font-size:22.5778px;font-family:Montserrat;-inkscape-font-specification:'Montserrat, Bold';text-align:center;text-anchor:middle;fill:#b3b3b3;stroke-width:1.32292"
       d="m 82.415125,-26.786995 -11.766207,1.737878 c -0.121246,0.411432 -0.182418,0.843452 -0.182418,1.296562 0,0.842903 0.165986,1.535009 0.497127,2.076875 0.346193,0.541867 0.789835,0.978857 1.331702,1.309998 0.541866,0.331141 1.136641,0.601628 1.78387,0.812354 0.662282,0.210725 1.316992,0.391567 1.964221,0.542085 0.662282,0.135467 1.264225,0.286082 1.806092,0.451652 0.541866,0.150519 0.97834,0.353384 1.309481,0.609265 0.33114,0.24083 0.497127,0.572286 0.497127,0.993738 0,0.331141 -0.105534,0.624685 -0.31626,0.880567 -0.210726,0.255881 -0.542182,0.458746 -0.993738,0.609265 -0.436503,0.135466 -1.015906,0.203605 -1.738395,0.203605 -0.948267,0 -1.888835,-0.150615 -2.82205,-0.451652 -0.918163,-0.316089 -1.715802,-0.715167 -2.393135,-1.196826 l -1.241785,2.754354 c 0.707437,0.541866 1.64032,0.986025 2.799312,1.332218 1.158993,0.331141 2.371082,0.496611 3.635437,0.496611 1.505185,0 2.746984,-0.225406 3.725354,-0.676962 0.993422,-0.451555 1.738295,-1.046329 2.235006,-1.78387 0.496711,-0.737541 0.745174,-1.550035 0.745174,-2.438094 0,-0.827852 -0.173156,-1.512789 -0.519348,-2.054655 -0.331141,-0.541867 -0.767614,-0.97834 -1.309481,-1.309481 -0.541867,-0.331141 -1.14381,-0.594975 -1.806091,-0.790649 -0.64723,-0.195674 -1.302457,-0.368313 -1.964738,-0.518832 -0.64723,-0.150518 -1.241487,-0.301133 -1.783354,-0.451652 -0.541867,-0.150518 -0.97834,-0.346214 -1.309481,-0.587044 -0.33114,-0.255882 -0.49661,-0.587338 -0.49661,-0.993738 0,-0.346192 0.09785,-0.646906 0.293522,-0.902787 0.195674,-0.270933 0.518928,-0.48917 0.970483,-0.654741 0.451556,-0.16557 1.031475,-0.248563 1.738912,-0.248563 0.707437,0 1.429769,0.105534 2.16731,0.31626 0.737541,0.195674 1.474727,0.504073 2.212268,0.925525 z" /><path
       id="path4296"
       style="font-weight:bold;font-size:22.5778px;font-family:Montserrat;-inkscape-font-specification:'Montserrat, Bold';text-align:center;text-anchor:middle;fill:#b3b3b3;stroke-width:1.32292"
       d="m 53.46547,-22.510771 v 2.957443 c 0,2.317985 0.63217,4.10179 1.896525,5.351094 1.264356,1.249304 3.017935,1.873788 5.260661,1.873788 2.242726,0 3.996305,-0.624484 5.260661,-1.873788 1.264356,-1.249304 1.896525,-3.033109 1.896525,-5.351094 v -5.072042 l -3.612182,0.533817 v 4.402832 c 0,1.505186 -0.308916,2.5892 -0.926042,3.251481 -0.617126,0.662282 -1.482387,0.993221 -2.596224,0.993221 -1.113837,0 -1.979098,-0.330939 -2.596224,-0.993221 -0.617126,-0.662281 -0.926042,-1.746295 -0.926042,-3.251481 v -3.362068 z" /><path
       id="path4284"
       style="font-weight:bold;font-size:22.5778px;font-family:Montserrat;-inkscape-font-specification:'Montserrat, Bold';text-align:center;text-anchor:middle;fill:#b3b3b3;stroke-width:1.32292"
       d="m 0.18448486,-14.639417 -5.05343836,0.746208 0.5581055,1.293978 h 3.61218264 z" /><path
       id="path4280"
       style="font-weight:bold;font-size:22.5778px;font-family:Montserrat;-inkscape-font-specification:'Montserrat, Bold';text-align:center;text-anchor:middle;fill:#b3b3b3;stroke-width:1.32292"
       d="m 11.087179,-16.250171 -3.6349207,0.536918 v 3.114022 H 19.689237 v -2.935221 h -8.602058 z" /><path
       id="path4276"
       style="font-weight:bold;font-size:22.5778px;font-family:Montserrat;-inkscape-font-specification:'Montserrat, Bold';text-align:center;text-anchor:middle;fill:#b3b3b3;stroke-width:1.32292"
       d="m 35.622115,-19.874756 -13.020394,1.923397 v 5.352128 h 3.657658 v -4.402832 h 3.183268 c 0.05785,0 0.113342,-0.0029 0.170533,-0.0036 l 3.035473,4.406449 h 3.95118 l -3.53105,-5.066874 c 0.01033,-0.0045 0.02123,-0.0084 0.03152,-0.01292 1.023526,-0.451556 1.813996,-1.099097 2.370915,-1.942001 0.05365,-0.08265 0.102411,-0.168143 0.150895,-0.253731 z" /><path
       id="path4274"
       style="font-weight:bold;font-size:22.5778px;font-family:Montserrat;-inkscape-font-specification:'Montserrat, Bold';text-align:center;text-anchor:middle;fill:#b3b3b3;stroke-width:1.32292"
       d="m 46.89998,-21.540804 -7.012492,1.036112 c 0.06902,0.0481 0.139346,0.09469 0.211873,0.13901 0.541867,0.331141 1.136641,0.601628 1.783871,0.812354 0.662281,0.210725 1.316991,0.391567 1.964221,0.542085 0.662281,0.135467 1.264224,0.286082 1.806091,0.451652 0.541867,0.150519 0.97834,0.353384 1.309481,0.609265 0.331141,0.24083 0.497127,0.572286 0.497127,0.993738 0,0.331141 -0.105534,0.624685 -0.31626,0.880567 -0.210726,0.255881 -0.541665,0.458746 -0.993221,0.609265 -0.436503,0.135466 -1.016423,0.203605 -1.738912,0.203605 -0.948266,0 -1.888835,-0.150615 -2.82205,-0.451652 -0.918163,-0.316089 -1.715802,-0.715167 -2.393135,-1.196826 l -1.241785,2.754354 c 0.707437,0.541866 1.64032,0.986025 2.799313,1.332218 1.158992,0.331141 2.371081,0.496611 3.635437,0.496611 1.505185,0 2.746983,-0.225406 3.725354,-0.676962 0.993422,-0.451555 1.738294,-1.046329 2.235005,-1.78387 0.496711,-0.737541 0.745174,-1.550035 0.745174,-2.438094 0,-0.827852 -0.173155,-1.512789 -0.519348,-2.054655 -0.33114,-0.541867 -0.767614,-0.97834 -1.309481,-1.309481 -0.541866,-0.331141 -1.143809,-0.594975 -1.806091,-0.790649 -0.185614,-0.05612 -0.37332,-0.106245 -0.560172,-0.158647 z" /></g><g
     id="g4340"
     inkscape:label="line"
     transform="translate(11.129553,28.674736)"><path
       id="path4304"
       style="font-weight:bold;font-size:22.5778px;font-family:Montserrat;-inkscape-font-specification:'Montserrat, Bold';text-align:center;text-anchor:middle;fill:#ffffff;stroke-width:1.32292"
       d="m 70.99825,-25.890926 c -0.146423,0.270168 -0.263571,0.550788 -0.349332,0.841809 l 11.766207,-1.737878 0.198437,-0.487826 c -0.147753,-0.09348 -0.301039,-0.180772 -0.457853,-0.264583 z" /><path
       id="path4298"
       style="font-weight:bold;font-size:22.5778px;font-family:Montserrat;-inkscape-font-specification:'Montserrat, Bold';text-align:center;text-anchor:middle;fill:#ffffff;stroke-width:1.32292"
       d="m 64.16766,-24.091553 3.612182,-0.533817 v -0.790133 l -3.612182,0.533818 z" /><path
       id="path4294"
       style="font-weight:bold;font-size:22.5778px;font-family:Montserrat;-inkscape-font-specification:'Montserrat, Bold';text-align:center;text-anchor:middle;fill:#ffffff;stroke-width:1.32292"
       d="m 53.46547,-22.510771 3.657658,-0.540018 v -0.790133 l -3.657658,0.540019 z" /><path
       id="path4286"
       style="font-weight:bold;font-size:22.5778px;font-family:Montserrat;-inkscape-font-specification:'Montserrat, Bold';text-align:center;text-anchor:middle;fill:#ffffff;stroke-width:1.32292"
       d="m 0.18448486,-14.639417 0.36535238,-0.844392 -5.73918454,0.84801 0.3203938,0.74259 z" /><path
       id="path4282"
       style="font-weight:bold;font-size:22.5778px;font-family:Montserrat;-inkscape-font-specification:'Montserrat, Bold';text-align:center;text-anchor:middle;fill:#ffffff;stroke-width:1.32292"
       d="m 11.087179,-16.250171 v -0.790133 l -3.6349207,0.536919 v 0.790132 z" /><path
       id="path4278"
       style="font-weight:bold;font-size:22.5778px;font-family:Montserrat;-inkscape-font-specification:'Montserrat, Bold';text-align:center;text-anchor:middle;fill:#ffffff;stroke-width:1.32292"
       d="m 35.622115,-19.874756 c 0.15174,-0.267864 0.278711,-0.549344 0.379822,-0.845943 l -13.400216,1.979207 v 0.790133 z" /><path
       id="path4272"
       style="font-weight:bold;font-size:22.5778px;font-family:Montserrat;-inkscape-font-specification:'Montserrat, Bold';text-align:center;text-anchor:middle;fill:#ffffff;stroke-width:1.32292"
       d="m 44.925423,-22.038965 -5.790344,0.855245 c 0.222229,0.257085 0.472548,0.484009 0.752409,0.679028 l 7.012492,-1.036112 c -0.464694,-0.130322 -0.932215,-0.252832 -1.404566,-0.360185 -0.198064,-0.04606 -0.381794,-0.09191 -0.569991,-0.137976 z" /></g><g
     id="g4316"
     inkscape:label="top"
     style="fill:#4d4d4d"
     transform="translate(11.129553,28.674736)"><path
       id="text2307"
       style="font-weight:bold;font-size:22.5778px;font-family:Montserrat;-inkscape-font-specification:'Montserrat, Bold';text-align:center;text-anchor:middle;fill:#4d4d4d;stroke-width:1.32292"
       d="m 57.123128,-23.840922 v -4.562512 H 53.46547 v 5.102531 z" /><path
       id="path4302"
       style="font-weight:bold;font-size:22.5778px;font-family:Montserrat;-inkscape-font-specification:'Montserrat, Bold';text-align:center;text-anchor:middle;fill:#4d4d4d;stroke-width:1.32292"
       d="m 70.99825,-25.890926 11.157459,-1.648478 c -0.625957,-0.334551 -1.323077,-0.593566 -2.093412,-0.774113 -0.963319,-0.24083 -1.9418,-0.361219 -2.935222,-0.361219 -1.490133,0 -2.731932,0.225923 -3.725354,0.677479 -0.97837,0.436503 -1.715557,1.031277 -2.212268,1.78387 -0.06907,0.105758 -0.13204,0.213298 -0.191203,0.322461 z" /><path
       id="path4300"
       style="font-weight:bold;font-size:22.5778px;font-family:Montserrat;-inkscape-font-specification:'Montserrat, Bold';text-align:center;text-anchor:middle;fill:#4d4d4d;stroke-width:1.32292"
       d="m 64.16766,-24.881685 3.612182,-0.533818 v -2.987931 H 64.16766 Z" /><path
       id="path4292"
       style="font-weight:bold;font-size:22.5778px;font-family:Montserrat;-inkscape-font-specification:'Montserrat, Bold';text-align:center;text-anchor:middle;fill:#4d4d4d;stroke-width:1.32292"
       d="m 22.601721,-18.741492 13.400216,-1.979207 c 0.201931,-0.592343 0.304374,-1.24125 0.304374,-1.948202 0,-1.189096 -0.278173,-2.212658 -0.835091,-3.070613 -0.556919,-0.857956 -1.347389,-1.512666 -2.370915,-1.964221 -1.023526,-0.466608 -2.242784,-0.699699 -3.657658,-0.699699 h -6.840926 z m 3.657658,-6.681762 h 2.98018 c 1.128889,0 1.972126,0.240777 2.529045,0.722436 0.556918,0.481659 0.835091,1.15891 0.835091,2.031917 0,0.857956 -0.278173,1.535207 -0.835091,2.031918 -0.556919,0.481659 -1.400156,0.722436 -2.529045,0.722436 h -2.98018 z" /><path
       id="path4290"
       style="font-weight:bold;font-size:22.5778px;font-family:Montserrat;-inkscape-font-specification:'Montserrat, Bold';text-align:center;text-anchor:middle;fill:#4d4d4d;stroke-width:1.32292"
       d="m 7.4522583,-16.503385 3.6349207,-0.536919 v -2.151806 h 7.337536 v -2.844788 h -7.337536 v -3.431832 h 8.308536 v -2.934704 H 7.4522583 Z" /><path
       id="path4288"
       style="font-weight:bold;font-size:22.5778px;font-family:Montserrat;-inkscape-font-specification:'Montserrat, Bold';text-align:center;text-anchor:middle;fill:#4d4d4d;stroke-width:1.32292"
       d="m -5.1893473,-14.635799 5.73918454,-0.84801 5.59294026,-12.919625 h -3.635437 l -4.8792887,11.2882 -4.806425,-11.2882 h -3.9511798 z" /><path
       id="path4270"
       style="font-weight:bold;font-size:22.5778px;font-family:Montserrat;-inkscape-font-specification:'Montserrat, Bold';text-align:center;text-anchor:middle;fill:#4d4d4d;stroke-width:1.32292"
       d="m 44.931108,-28.674736 c -1.490134,0 -2.731932,0.225923 -3.725354,0.677479 -0.978371,0.436503 -1.715557,1.031277 -2.212268,1.78387 -0.48166,0.737541 -0.722954,1.557721 -0.722954,2.460832 0,0.842903 0.165987,1.535009 0.497128,2.076875 0.111974,0.175266 0.234973,0.338741 0.367419,0.49196 l 5.790344,-0.855245 c -0.42679,-0.104457 -0.837317,-0.209219 -1.213362,-0.313676 -0.541867,-0.150518 -0.978341,-0.346214 -1.309481,-0.587044 -0.331141,-0.255882 -0.496611,-0.587338 -0.496611,-0.993738 0,-0.346192 0.09785,-0.646906 0.293522,-0.902787 0.195674,-0.270933 0.518928,-0.48917 0.970484,-0.654741 0.451555,-0.16557 1.031475,-0.248563 1.738912,-0.248563 0.707437,0 1.429769,0.105534 2.167309,0.31626 0.737541,0.195674 1.475244,0.504073 2.212785,0.925525 l 1.128613,-2.777092 c -0.73754,-0.466607 -1.587947,-0.812918 -2.551265,-1.038696 -0.963319,-0.24083 -1.941799,-0.361219 -2.935221,-0.361219 z" /></g></svg>
