<svg xmlns="http://www.w3.org/2000/svg" version="1.1" xmlns:xlink="http://www.w3.org/1999/xlink" xmlns:svgjs="http://svgjs.com/svgjs" width="512" height="512" x="0" y="0" viewBox="0 0 512 512" style="enable-background:new 0 0 512 512" xml:space="preserve" class=""><g><path fill="#ffe07d" d="m186.384 498.981-22.173-41.808a10.384 10.384 0 0 0-12.221-5.062l-45.242 13.883c-8.397 2.577-16.002-5.787-12.641-13.902l79.787-192.617 111.044 45.997-79.787 192.617c-3.36 8.115-14.652 8.652-18.767.892z" data-original="#ffe07d"></path><path fill="#ffd064" d="m226.545 281.285-70.591 170.417a10.378 10.378 0 0 1 8.257 5.47l22.173 41.808c4.115 7.76 15.407 7.224 18.768-.891l79.787-192.617z" data-original="#ffd064"></path><path fill="#ffe07d" d="m325.616 498.981 22.173-41.808a10.384 10.384 0 0 1 12.221-5.062l45.242 13.883c8.397 2.577 16.002-5.787 12.641-13.902l-79.787-192.617-111.044 45.997 79.787 192.617c3.361 8.115 14.652 8.652 18.767.892z" data-original="#ffe07d"></path><path fill="#ffd064" d="m417.893 452.092-79.787-192.617-58.19 24.104 70.565 170.355a10.378 10.378 0 0 1 9.528-1.824l45.242 13.884c8.398 2.577 16.003-5.787 12.642-13.902z" data-original="#ffd064"></path><path fill="#e8ae4d" d="M276.035 14.527a32.233 32.233 0 0 0 29.594 5.532c14.305-4.442 29.785 1.555 37.363 14.475a32.234 32.234 0 0 0 25.597 15.849c14.943 1.025 27.212 12.209 29.611 26.994a32.236 32.236 0 0 0 18.143 24.026c13.564 6.354 20.964 21.215 17.86 35.868a32.234 32.234 0 0 0 8.239 28.957c10.353 10.825 11.884 27.355 3.697 39.898a32.235 32.235 0 0 0-2.778 29.978c5.743 13.834 1.2 29.801-10.965 38.539a32.236 32.236 0 0 0-13.42 26.95c.358 14.974-9.646 28.222-24.147 31.976a32.232 32.232 0 0 0-22.249 20.283c-5.076 14.092-19.19 22.832-34.067 21.094a32.235 32.235 0 0 0-28.074 10.876c-9.824 11.307-26.142 14.358-39.387 7.363a32.238 32.238 0 0 0-30.107 0c-13.245 6.995-29.563 3.945-39.387-7.363a32.235 32.235 0 0 0-28.074-10.876c-14.877 1.738-28.992-7.001-34.067-21.094a32.236 32.236 0 0 0-22.249-20.283c-14.501-3.754-24.505-17.001-24.147-31.976a32.23 32.23 0 0 0-13.42-26.95c-12.165-8.738-16.708-24.706-10.965-38.539a32.235 32.235 0 0 0-2.778-29.978c-8.187-12.543-6.656-29.073 3.697-39.898a32.234 32.234 0 0 0 8.239-28.957c-3.103-14.654 4.296-29.514 17.86-35.868a32.232 32.232 0 0 0 18.143-24.026c2.4-14.785 14.668-25.969 29.611-26.994a32.232 32.232 0 0 0 25.597-15.849c7.579-12.92 23.059-18.917 37.363-14.475a32.236 32.236 0 0 0 29.594-5.532c11.738-9.31 28.339-9.31 40.073 0z" data-original="#e8ae4d"></path><circle cx="256" cy="202.231" r="142.205" fill="#ffe07d" data-original="#ffe07d"></circle><path fill="#ffd064" d="M256 60.026a142.632 142.632 0 0 0-31.671 3.545c63.292 14.397 110.534 71.009 110.534 138.66s-47.242 124.264-110.534 138.66A142.64 142.64 0 0 0 256 344.436c78.538 0 142.205-63.667 142.205-142.205S334.538 60.026 256 60.026z" data-original="#ffd064"></path><path fill="#e8ae4d" d="m262.591 106.451 20.288 55.577a7.018 7.018 0 0 0 6.339 4.606l59.126 2.121c6.54.235 9.226 8.503 4.073 12.537l-46.587 36.47a7.015 7.015 0 0 0-2.421 7.452l16.254 56.888c1.798 6.292-5.236 11.402-10.664 7.748l-49.081-33.037a7.018 7.018 0 0 0-7.836 0l-49.081 33.037c-5.429 3.654-12.462-1.456-10.664-7.748l16.254-56.888a7.017 7.017 0 0 0-2.421-7.452l-46.587-36.47c-5.153-4.034-2.466-12.302 4.073-12.537l59.126-2.121a7.016 7.016 0 0 0 6.339-4.606l20.288-55.577c2.244-6.147 10.938-6.147 13.182 0z" data-original="#e8ae4d"></path><g fill="#e5a32e"><path d="M308.999 289.849c5.429 3.654 12.462-1.456 10.664-7.748l-2.947-10.315a142.432 142.432 0 0 1-10.575 16.139zM348.345 168.755l-17.603-.632a142.024 142.024 0 0 1 3.942 27.051l17.734-13.883c5.153-4.033 2.467-12.302-4.073-12.536z" fill="#e5a32e" data-original="#e5a32e"></path></g><path d="M452.42 210.226c10.146-15.543 8.272-35.766-4.557-49.18a24.72 24.72 0 0 1-6.323-22.22c3.847-18.159-5.206-36.34-22.015-44.213a24.72 24.72 0 0 1-13.923-18.436c-2.973-18.322-17.983-32.005-36.5-33.275a24.72 24.72 0 0 1-19.643-12.162c-9.392-16.009-28.326-23.346-46.056-17.842a24.722 24.722 0 0 1-22.709-4.245c-14.541-11.536-34.85-11.536-49.39 0a24.716 24.716 0 0 1-22.709 4.245c-17.726-5.505-36.665 1.832-46.056 17.842a24.718 24.718 0 0 1-19.642 12.162c-18.518 1.27-33.527 14.954-36.501 33.275a24.718 24.718 0 0 1-13.922 18.436c-16.808 7.874-25.861 26.055-22.016 44.213a24.721 24.721 0 0 1-6.322 22.221c-12.828 13.414-14.703 33.638-4.557 49.181a24.717 24.717 0 0 1 2.131 23.004c-7.117 17.142-1.558 36.677 13.516 47.505a24.719 24.719 0 0 1 10.297 20.681c-.443 18.555 11.797 34.763 29.765 39.415a24.71 24.71 0 0 1 13.214 8.628l-41.324 99.763c-5.791 13.981 7.316 28.378 21.769 23.941l45.242-13.884a2.892 2.892 0 0 1 3.395 1.407l22.173 41.808c7.093 13.374 26.538 12.43 32.322-1.535L255.15 396.98a25.21 25.21 0 0 1 1.695 0l43.071 103.981c5.795 13.987 25.239 14.89 32.323 1.536l22.173-41.809a2.887 2.887 0 0 1 3.395-1.406l45.241 13.884c14.461 4.439 27.558-9.968 21.77-23.941l-41.325-99.763a24.71 24.71 0 0 1 13.214-8.628c17.968-4.651 30.207-20.859 29.765-39.415a24.716 24.716 0 0 1 10.298-20.68c15.075-10.829 20.632-30.364 13.515-47.506a24.74 24.74 0 0 1 2.135-23.007zM198.224 495.219c-.941 2.272-4.067 2.411-5.214.248l-22.173-41.808c-4.011-7.563-12.862-11.227-21.045-8.717l-45.242 13.884c-2.347.718-4.452-1.594-3.512-3.863L137.7 366.45c8.272 11.331 22.1 17.646 36.657 15.946a24.727 24.727 0 0 1 21.542 8.345c7.783 8.96 18.75 13.716 29.939 13.715 3.539 0 7.099-.495 10.589-1.464zm209.227-36.394-45.241-13.884c-8.183-2.51-17.036 1.155-21.046 8.717l-22.173 41.808c-1.145 2.161-4.275 2.021-5.215-.248l-38.195-92.209c14.519 4.03 30.278-.48 40.521-12.27a24.711 24.711 0 0 1 21.542-8.345c14.571 1.703 28.39-4.614 36.657-15.945l36.664 88.51c.942 2.278-1.175 4.581-3.514 3.866zm32.41-256.797a39.709 39.709 0 0 0-3.424 36.953c4.43 10.671.971 22.831-8.414 29.573a39.709 39.709 0 0 0-16.542 33.22c.276 11.552-7.344 21.642-18.53 24.537a39.703 39.703 0 0 0-24.518 18.728l-.043.079a39.715 39.715 0 0 0-2.864 6.194c-3.915 10.871-14.658 17.533-26.141 16.187a39.706 39.706 0 0 0-34.605 13.406c-7.577 8.722-20.006 11.045-30.224 5.65a39.687 39.687 0 0 0-10.913-3.847l-.093-.02a39.674 39.674 0 0 0-15.114.004l-.053.011a39.742 39.742 0 0 0-10.937 3.852c-10.218 5.396-22.646 3.072-30.223-5.65a39.704 39.704 0 0 0-34.606-13.405c-11.472 1.343-22.227-5.315-26.142-16.187a39.772 39.772 0 0 0-2.861-6.188l-.051-.094a39.702 39.702 0 0 0-24.513-18.72c-11.186-2.896-18.805-12.985-18.529-24.536a39.71 39.71 0 0 0-16.542-33.221c-9.384-6.741-12.845-18.902-8.414-29.574a39.709 39.709 0 0 0-3.424-36.953c-6.315-9.675-5.149-22.265 2.838-30.615a39.71 39.71 0 0 0 10.156-35.694c-2.394-11.304 3.242-22.622 13.705-27.524a39.71 39.71 0 0 0 22.365-29.615c1.851-11.406 11.195-19.924 22.722-20.714a39.705 39.705 0 0 0 31.553-19.537c5.847-9.966 17.639-14.532 28.67-11.106a39.708 39.708 0 0 0 36.48-6.819c9.05-7.182 21.694-7.182 30.747 0a39.705 39.705 0 0 0 36.479 6.819c11.035-3.427 22.825 1.141 28.67 11.106a39.71 39.71 0 0 0 31.553 19.537c11.527.791 20.871 9.309 22.722 20.714a39.715 39.715 0 0 0 22.365 29.616c10.464 4.901 16.099 16.219 13.705 27.523a39.708 39.708 0 0 0 10.156 35.694c7.983 8.35 9.149 20.94 2.834 30.616z" fill="#000000" data-original="#000000"></path><path d="M113.951 192.129a7.502 7.502 0 0 0 8.359-6.527C130.592 118.287 188.067 67.526 256 67.526c67.966 0 125.443 50.788 133.698 118.139a7.501 7.501 0 0 0 8.356 6.531 7.5 7.5 0 0 0 6.532-8.356C395.41 108.979 331.532 52.527 256 52.527c-75.497 0-139.371 56.422-148.577 131.243a7.5 7.5 0 0 0 6.528 8.359zM398.055 212.26c-4.099-.5-7.852 2.421-8.356 6.532-8.252 67.354-65.73 118.145-133.699 118.145-67.938 0-125.413-50.766-133.692-118.086a7.5 7.5 0 0 0-14.887 1.831c9.202 74.827 73.076 131.253 148.578 131.253 75.536 0 139.414-56.455 148.586-131.32a7.497 7.497 0 0 0-6.53-8.355z" fill="#000000" data-original="#000000"></path><path d="M361.899 171.281c-1.906-5.866-7.12-9.8-13.285-10.021l-58.801-2.109-20.177-55.272c-2.115-5.794-7.467-9.538-13.635-9.538s-11.52 3.744-13.635 9.538l-20.177 55.272-58.801 2.109c-6.164.221-11.379 4.155-13.285 10.021s0 12.114 4.857 15.916l46.331 36.269-16.164 56.576c-1.695 5.931.435 12.106 5.426 15.732 4.985 3.622 11.516 3.746 16.637.298L256 263.215l48.811 32.855c5.115 3.444 11.646 3.328 16.637-.298 4.991-3.625 7.12-9.8 5.425-15.732l-16.164-56.575 46.331-36.269c4.858-3.802 6.765-10.049 4.859-15.915zm-60.69 40.574a14.457 14.457 0 0 0-5.01 15.419l15.89 55.615-47.982-32.297c-2.463-1.658-5.285-2.487-8.107-2.487s-5.644.829-8.106 2.486l-47.983 32.297 15.89-55.614a14.459 14.459 0 0 0-5.009-15.419l-45.546-35.654 57.805-2.074a14.459 14.459 0 0 0 13.115-9.529l19.835-54.334 19.835 54.334a14.457 14.457 0 0 0 13.115 9.528l57.803 2.074z" fill="#000000" data-original="#000000"></path></g></svg>
