<svg width="20" height="16" viewBox="0 0 20 16" fill="none" xmlns="http://www.w3.org/2000/svg">
<path fill-rule="evenodd" clip-rule="evenodd" d="M9.82847 -6.10352e-05C8.01743 -6.10352e-05 6.28058 0.719385 5 2H2C0.89543 2 0 2.89543 0 4V14C0 15.1046 0.895431 16 2 16H18C19.1046 16 20 15.1046 20 14V4C20 2.89543 19.1046 2 18 2H15C13.7194 0.719385 11.9826 -6.10352e-05 10.1715 -6.10352e-05H9.82847ZM5 5.5C5 4.67157 4.32843 4 3.5 4C2.67157 4 2 4.67157 2 5.5C2 6.32843 2.67157 7 3.5 7C4.32843 7 5 6.32843 5 5.5ZM7 9.00004C7 7.32562 8.35715 6 10 6C11.6429 6 13 7.32562 13 9.00004C13 10.6745 11.6429 12 10 12C8.35715 12 7 10.6745 7 9.00004Z" fill="white"/>
</svg>
