<svg xmlns="http://www.w3.org/2000/svg" xml:space="preserve" width="512" height="512" style="enable-background:new 0 0 512 512" viewBox="0 0 36 36">
  <circle cx="18" cy="13.72" r="2.86" data-original="#000000"/>
  <path fill-rule="evenodd" d="M27.87 6.11A9.14 9.14 0 0 1 23.5 5L18 2l-5.5 3a9.14 9.14 0 0 1-4.37 1.11H4.06V18.8a13.71 13.71 0 0 0 8 12.46L18 34l5.95-2.73a13.71 13.71 0 0 0 8-12.46V6.11zM18 8.57a5.14 5.14 0 1 1-5.14 5.14A5.15 5.15 0 0 1 18 8.57zm4.57 16.57a2.29 2.29 0 0 0-2.29-2.29h-4.57a2.28 2.28 0 0 0-2.28 2.28h-2.29a4.57 4.57 0 0 1 4.57-4.57h4.57a4.58 4.58 0 0 1 4.57 4.57z" data-original="#000000"/>
</svg>
