<svg xmlns="http://www.w3.org/2000/svg" xml:space="preserve" width="512" height="512" style="enable-background:new 0 0 512 512" viewBox="0 0 488.1 488.1">
  <path d="M299.9 86.8c14.2-6.3 30.3-9.8 46.2-9.8 9.2 0 18 1.1 26.3 3.2 3.3.8 6.5-2 6-5.4l-1.2-9.6c-1-16-19.3-28.9-41.2-28.9-22.5 0-44 13.5-44 30.2l1 16c.3 3.5 3.8 5.7 6.9 4.3zm187.4 275.1-.5-2.9c0-.2-.1-.4-.1-.6l-18.5-94c-2.4-21.7-18.2-40.6-41.2-52.3l-8.8-68.3c0-29-32.8-52.7-72.1-52.7s-76.7 23.5-76.7 52.6c0 1.4.1 2.9.3 4.3l.5 7.4c-7.8-2.8-16.7-4.4-26.1-4.4-9.5 0-18.4 1.6-26.3 4.5l.5-7.5c.2-1.4.3-2.8.3-4.3 0-29-37.5-52.6-76.7-52.6-39.3 0-72.1 23.7-72.1 52.7L61 212.1c-23 11.6-38.8 30.6-41.2 52.3l-18.5 94c0 .2-.1.4-.1.6l-.5 2.9c-.4 3-.7 6-.7 9.1 0 44.6 46.7 80.8 104.2 80.8s104.2-36.2 104.2-80.8v-37c10.3 4.8 22.6 7.5 35.7 7.5s25.3-2.7 35.6-7.4V371c0 44.6 46.7 80.8 104.2 80.8 57.4 0 104.2-36.2 104.2-80.8-.1-3.1-.4-6.1-.8-9.1zm-383.1 60.8c-40.7 0-75.1-23.7-75.1-51.7 0-28.1 34.4-51.7 75.1-51.7s75.1 23.7 75.1 51.7c0 28-34.4 51.7-75.1 51.7zm139.9-106.8c-17.1 0-31-9.7-31-21.6s13.9-21.6 31-21.6 31 9.7 31 21.6c0 11.9-13.9 21.6-31 21.6zm139.7 106.8c-40.7 0-75.1-23.7-75.1-51.7 0-28.1 34.4-51.7 75.1-51.7s75.1 23.7 75.1 51.7-34.4 51.7-75.1 51.7zM115.5 80.2c8.3-2.1 17.2-3.2 26.3-3.2 15.9 0 32.1 3.5 46.2 9.8 3.1 1.4 6.6-.8 6.8-4.2l1-16c0-16.7-21.5-30.2-44-30.2-21.9 0-40.1 12.9-41.2 28.9l-1.2 9.6c-.4 3.3 2.7 6.2 6.1 5.3z" data-original="#000000"/>
</svg>
