<svg xmlns="http://www.w3.org/2000/svg" xml:space="preserve" width="512" height="512" style="enable-background:new 0 0 512 512" viewBox="0 0 60 60">
  <path d="M43 29c-7.732 0-14 6.268-14 14s6.268 14 14 14 14-6.268 14-14-6.268-14-14-14zm0 4c2.038 0 3.931.613 5.512 1.66L34.66 48.512A9.948 9.948 0 0 1 33 43c0-5.523 4.477-10 10-10zm0 20a9.948 9.948 0 0 1-5.512-1.66L51.34 37.488A9.948 9.948 0 0 1 53 43c0 5.523-4.477 10-10 10z" data-original="#000000"/>
  <path d="M26 43c0-5.15 2.299-9.755 5.916-12.872A21.78 21.78 0 0 0 25 29C13.954 29 5 36.954 5 48v6h25.051A16.922 16.922 0 0 1 26 43zm-1-17c6.075 0 11-4.925 11-11S31.075 4 25 4 14 8.925 14 15s4.925 11 11 11z" data-original="#000000"/>
</svg>
