<svg xmlns="http://www.w3.org/2000/svg" xml:space="preserve" width="68" height="104"><rect width="100%" height="100%" fill="rgba(255,255,255,0)"/><g><path d="M0 0v80.5L34.3 104 68 80.5V0z" style="stroke:none;stroke-width:0;stroke-dasharray:none;stroke-linecap:butt;stroke-dashoffset:0;stroke-linejoin:miter;stroke-miterlimit:4;is-custom-font:none;font-file-url:none;fill:#a061d1;fill-rule:nonzero;opacity:1" vector-effect="non-scaling-stroke"/><path d="M532.8 531.5c61.2-61.2 65.5-156.6 12.8-223.5-4.3-4.3-7.1-8.5-12.8-14.2l-14.2-14.2L334.9 97.4c-4.3 2.8-7.1 7.1-11.4 10l-10 10 199.3 199.3c4.3 4.3 8.5 10 14.2 15.7 39.9 54.1 34.2 132.4-14.2 179.3-25.6 25.6-61.2 39.9-96.8 39.9-28.5 0-55.5-8.5-78.3-24.2L325 540c-2.8 2.8-7.1 5.7-10 8.5 28.5 21.3 64 32.7 99.6 32.7 44.1.1 86.8-17 118.2-49.7zm-38.5-217.8-185 185-14.2 14.3c-4.3 2.8-10 8.5-15.7 12.8-24.2 17.1-52.7 27-82.5 27-37 0-71.2-14.2-96.8-39.9-47-47-54.1-122.4-15.7-176.5l-12.8-12.8c-2.8-2.8-5.7-7.1-8.5-10C13.3 380.5 20.4 473 78.8 531.4c31.3 31.3 74 48.4 118.1 48.4 38.4 0 75.4-12.8 103.9-37 4.3-4.3 8.5-7.1 14.2-12.8l14.2-14.2L512.8 335c-2.8-4.3-7.1-7.1-10-11.4l-8.5-9.9zm-392.8-18.5c-4.3-4.3-8.5-10-14.2-15.7-39.9-54.1-34.2-132.4 14.2-179.3 25.6-25.6 59.8-39.9 96.8-39.9 28.5 0 55.5 8.5 78.3 24.2l12.8-12.8c2.8-2.8 7.1-5.7 10-8.5-28.5-21.3-64-32.7-99.6-32.7-44.1 0-86.8 17.1-118.1 48.4-61.2 61.2-65.5 156.6-12.8 223.5 4.3 4.3 7.1 8.5 12.8 14.2l197.8 197.8c4.3-2.8 7.1-7.1 11.4-10l10-10-185-185-14.4-14.2zm195-214.9c5.7-5.7 10-8.5 14.2-12.8 28.5-24.2 65.5-37 103.9-37 44.1 0 86.8 17.1 118.1 48.4 58.4 59.8 65.5 152.3 15.7 219.2-2.8-2.8-5.7-7.1-8.5-10l-12.8-14.2c38.4-54.1 31.3-129.5-15.7-176.5-25.6-25.6-59.8-39.9-96.8-39.9-29.9 0-58.4 10-82.5 27-5.7 5.7-11.4 10-15.7 14.2L117.2 298l-10-10c-2.8-2.8-5.7-7.1-8.5-10L296.5 80.3z" style="stroke:none;stroke-width:0;stroke-dasharray:none;stroke-linecap:butt;stroke-dashoffset:0;stroke-linejoin:miter;stroke-miterlimit:4;is-custom-font:none;font-file-url:none;fill:#fff;fill-rule:nonzero;opacity:1" transform="translate(12.149 30.162) scale(.0714)" vector-effect="non-scaling-stroke"/></g></svg>