<?xml version="1.0" encoding="UTF-8" standalone="no"?>
<!-- Created with Inkscape (http://www.inkscape.org/) -->

<svg
   width="94.420586mm"
   height="16.875456mm"
   viewBox="0 0 94.420585 16.875456"
   version="1.1"
   id="svg5"
   sodipodi:docname="black-red-vertical-split.svg"
   inkscape:version="1.2.2 (732a01da63, 2022-12-09)"
   xml:space="preserve"
   xmlns:inkscape="http://www.inkscape.org/namespaces/inkscape"
   xmlns:sodipodi="http://sodipodi.sourceforge.net/DTD/sodipodi-0.dtd"
   xmlns="http://www.w3.org/2000/svg"
   xmlns:svg="http://www.w3.org/2000/svg"><sodipodi:namedview
     id="namedview7"
     pagecolor="#ffffff"
     bordercolor="#000000"
     borderopacity="0.25"
     inkscape:showpageshadow="2"
     inkscape:pageopacity="0.0"
     inkscape:pagecheckerboard="0"
     inkscape:deskcolor="#d1d1d1"
     inkscape:document-units="mm"
     showgrid="false"
     inkscape:zoom="2.87211"
     inkscape:cx="176.35118"
     inkscape:cy="32.728551"
     inkscape:window-width="1920"
     inkscape:window-height="1009"
     inkscape:window-x="1912"
     inkscape:window-y="-8"
     inkscape:window-maximized="1"
     inkscape:current-layer="layer1-1" /><defs
     id="defs2" /><g
     inkscape:label="Layer 1"
     inkscape:groupmode="layer"
     id="layer1"
     transform="translate(114.96397,-22.027281)"><g
       id="g20028"
       transform="matrix(0.08437254,0,0,0.08437254,-293.01382,-12.68131)"><g
         inkscape:label="Layer 1"
         id="layer1-1"
         transform="matrix(11.852197,0,0,11.852197,3506.9116,703.1377)"><g
           id="g11554"
           transform="translate(-18.117703,-16.619479)"
           style="fill:#ffffff"><path
             id="path396"
             style="font-weight:bold;font-size:22.5778px;font-family:Montserrat;-inkscape-font-specification:'Montserrat, Bold';fill:#e04f5f;fill-opacity:1;stroke-width:2.16696"
             d="m -17.917253,-3.9129395 c -0.1355,0.4325439 -0.205672,0.8878127 -0.205672,1.3668417 0,0.8429021 0.165471,1.5350104 0.496611,2.07687579 0.346199,0.54186646 0.789832,0.97834013 1.331701,1.3094808 0.54186,0.33114071 1.136631,0.60214551 1.783871,0.81287031 0.662269,0.2107258 1.316982,0.3915679 1.964221,0.5420857 0.662279,0.1354669 1.264222,0.2855655 1.806091,0.4511353 0.54186,0.1505188 0.9783414,0.3539012 1.3094811,0.6097819 0.3311497,0.2408288 0.4971273,0.5717694 0.4971273,0.993221 0,0.3311407 -0.10554,0.6246847 -0.3162598,0.8805664 -0.2107298,0.2558818 -0.5416716,0.4592631 -0.9932206,0.6097819 -0.4365,0.1354659 -1.016413,0.2030884 -1.738912,0.2030884 -0.948259,0 -1.888831,-0.1506153 -2.82205,-0.451652 C -15.722423,5.175049 -16.520071,4.7764868 -17.1974,4.2948283 l -1.241785,2.7543538 c 0.70744,0.5418655 1.640841,0.9860268 2.79983,1.3322185 1.158988,0.3311406 2.370571,0.4966105 3.63492,0.4966105 1.505188,0 2.7469748,-0.2259225 3.7253538,-0.6774781 0.993419,-0.4515545 1.7383062,-1.0458144 2.2350057,-1.7833536 0.4967195,-0.7375413 0.7451741,-1.5505528 0.7451741,-2.4386109 0,-0.8278512 -0.1731585,-1.5127885 -0.5193481,-2.0546549 -0.3311397,-0.5418655 -0.7676213,-0.97834015 -1.3094808,-1.30948082 -0.5418695,-0.33114067 -1.143812,-0.59445984 -1.8060913,-0.79013265 -0.6472394,-0.1956748 -1.3019514,-0.36882929 -1.9642214,-0.51934814 -0.647239,-0.15051785 -1.242001,-0.30113321 -1.78387,-0.45165199 -0.54186,-0.1505179 -0.978341,-0.3462155 -1.309481,-0.5870443 -0.33114,-0.2558817 -0.496611,-0.5868214 -0.496611,-0.993221 0,-0.3461917 0.09779,-0.6474223 0.293523,-0.9033041 0.195669,-0.2709327 0.518933,-0.4891705 0.970483,-0.6547404 0.45156,-0.1655708 1.031483,-0.2480468 1.738912,-0.2480468 0.707439,0 1.42977,0.1050162 2.1673095,0.315743 0.7375493,0.1956738 1.4752456,0.504591 2.2127848,0.9260416 l 0.9870199,-2.4287923 z" /><path
             id="path11532"
             style="font-weight:bold;font-size:22.5778px;font-family:Montserrat;-inkscape-font-specification:'Montserrat, Bold';fill:#e04f5f;fill-opacity:1;stroke-width:2.16696"
             d="m -35.124471,-1.2774414 v 2.9305705 c 0,2.3179827 0.632166,4.1017918 1.896525,5.3510945 1.264349,1.2493018 3.017933,1.8737875 5.260661,1.8737875 2.242728,0 3.996312,-0.6244857 5.260661,-1.8737875 1.264358,-1.2493027 1.896525,-3.0331118 1.896525,-5.3510945 v -5.1232015 l -3.612183,0.5534546 v 4.4343546 c 0,1.5051835 -0.308912,2.588683 -0.926042,3.2509644 -0.617119,0.6622803 -1.482385,0.9937378 -2.596224,0.9937378 -1.113828,0 -1.979104,-0.3314575 -2.596223,-0.9937378 -0.61713,-0.6622814 -0.926042,-1.7457809 -0.926042,-3.2509644 v -3.3553507 z" /><path
             id="path11528"
             style="font-weight:bold;font-size:22.5778px;font-family:Montserrat;-inkscape-font-specification:'Montserrat, Bold';fill:#e04f5f;fill-opacity:1;stroke-width:2.16696"
             d="m -48.574296,0.78238118 c 0.02865,0.018473 0.05449,0.0400175 0.08372,0.0578776 0.541865,0.33114072 1.136641,0.60214552 1.78387,0.81287032 0.66228,0.2107258 1.317002,0.3915679 1.964221,0.5420857 0.66229,0.1354669 1.264222,0.2855655 1.806092,0.4511353 0.541869,0.1505188 0.978341,0.3539012 1.30948,0.6097819 0.33114,0.2408288 0.497128,0.5717694 0.497128,0.993221 0,0.3311407 -0.10553,0.6246847 -0.31626,0.8805664 -0.21072,0.2558818 -0.541661,0.4592631 -0.993221,0.6097819 -0.4365,0.1354659 -1.016423,0.2030884 -1.738912,0.2030884 -0.948269,0 -1.888831,-0.1506153 -2.82205,-0.451652 -0.91816,-0.3160887 -1.715802,-0.7146509 -2.393136,-1.1963094 l -1.241784,2.7543538 c 0.707436,0.5418655 1.640838,0.9860268 2.799829,1.3322185 1.158988,0.3311406 2.370571,0.4966105 3.63492,0.4966105 1.505189,0 2.746995,-0.2259225 3.725354,-0.6774781 0.993429,-0.4515545 1.738296,-1.0458144 2.235006,-1.7833536 0.496709,-0.7375413 0.745174,-1.5505528 0.745174,-2.4386109 0,-0.8278512 -0.173158,-1.5127885 -0.519348,-2.0546549 -0.33114,-0.5418655 -0.767621,-0.97834016 -1.309481,-1.30948083 -0.541869,-0.33114067 -1.143812,-0.59445984 -1.806091,-0.79013265 -0.138252,-0.0417973 -0.278093,-0.0785979 -0.417029,-0.11833903 z" /><path
             id="path11524"
             style="font-weight:bold;font-size:22.5778px;font-family:Montserrat;-inkscape-font-specification:'Montserrat, Bold';fill:#e04f5f;fill-opacity:1;stroke-width:2.16696"
             d="m -65.98822,3.4488851 v 5.1583415 h 3.657658 V 4.2043945 h 3.183268 c 0.05785,0 0.114884,-0.00126 0.172082,-0.00207 l 3.034441,4.4043823 h 3.950663 l -3.530534,-5.0668742 c 0.01031,-0.0045 0.02074,-0.0089 0.03101,-0.013436 1.023524,-0.4515555 1.813997,-1.0985804 2.370914,-1.9414835 0.02481,-0.038213 0.04606,-0.078466 0.06976,-0.1173055 z" /><path
             id="path11520"
             style="font-weight:bold;font-size:22.5778px;font-family:Montserrat;-inkscape-font-specification:'Montserrat, Bold';fill:#e04f5f;fill-opacity:1;stroke-width:2.16696"
             d="m -81.137683,5.7691569 v 2.8380697 h 12.236979 V 5.6720052 h -8.602059 V 5.2126017 Z" /><path
             id="path11516"
             style="font-weight:bold;font-size:22.5778px;font-family:Montserrat;-inkscape-font-specification:'Montserrat, Bold';fill:#e04f5f;fill-opacity:1;stroke-width:2.16696"
             d="m -93.320402,7.6351929 0.419613,0.9720337 h 3.612182 l 0.736906,-1.7027385 z" /></g><g
           id="g11546"
           transform="translate(-18.117699,-17.148646)"><path
             id="path11536"
             style="font-weight:bold;font-size:22.5778px;font-family:Montserrat;-inkscape-font-specification:'Montserrat, Bold';stroke-width:2.16696"
             d="m -17.917253,-3.9129395 11.7992802,-1.8071248 0.1415934,-0.3482991 C -6.7139187,-6.534971 -7.5643258,-6.881283 -8.5276449,-7.1070597 -9.4909639,-7.3478895 -10.469437,-7.468278 -11.462866,-7.468278 c -1.490129,0 -2.731935,0.2259235 -3.725354,0.677478 -0.978369,0.4365036 -1.715559,1.0307615 -2.212268,1.7833537 -0.226178,0.3463335 -0.396807,0.7115778 -0.516765,1.0945068 z" /><path
             id="path11534"
             style="font-weight:bold;font-size:22.5778px;font-family:Montserrat;-inkscape-font-specification:'Montserrat, Bold';stroke-width:2.16696"
             d="m -24.422282,-2.9166178 3.612183,-0.5534546 v -3.7274211 h -3.612183 z" /><path
             id="path11530"
             style="font-weight:bold;font-size:22.5778px;font-family:Montserrat;-inkscape-font-specification:'Montserrat, Bold';stroke-width:2.16696"
             d="m -35.124471,-1.2774414 3.657658,-0.5601725 v -5.3598796 h -3.657658 z" /><path
             id="path11526"
             style="font-weight:bold;font-size:22.5778px;font-family:Montserrat;-inkscape-font-specification:'Montserrat, Bold';stroke-width:2.16696"
             d="m -48.574296,0.78238118 7.027478,-1.07642008 c -0.511493,-0.14630755 -1.02638,-0.28264202 -1.547192,-0.40100911 -0.64723,-0.15051785 -1.242001,-0.30113321 -1.783871,-0.45165199 -0.541859,-0.1505179 -0.978341,-0.3462155 -1.309481,-0.5870443 -0.331139,-0.2558817 -0.49661,-0.5868214 -0.49661,-0.993221 0,-0.3461917 0.0979,-0.6474223 0.293522,-0.9033041 0.19568,-0.2709327 0.518924,-0.4891705 0.970483,-0.6547404 0.45155,-0.1655708 1.031473,-0.2480468 1.738912,-0.2480468 0.70743,0 1.429761,0.1050162 2.16731,0.315743 0.737539,0.1956738 1.475245,0.504591 2.212785,0.9260416 l 1.128613,-2.7770914 c -0.737539,-0.4666076 -1.587946,-0.8129196 -2.551265,-1.0386963 -0.96332,-0.2408298 -1.941803,-0.3612183 -2.935222,-0.3612183 -1.490128,0 -2.731935,0.2259235 -3.725354,0.677478 -0.978373,0.4365036 -1.715557,1.0307615 -2.212268,1.7833537 -0.481659,0.7375403 -0.722436,1.5582374 -0.722436,2.4613485 0,0.8429021 0.165469,1.5350104 0.49661,2.07687579 0.32752,0.51264082 0.745367,0.92757311 1.247986,1.25160319 z" /><path
             id="path11522"
             style="font-weight:bold;font-size:22.5778px;font-family:Montserrat;-inkscape-font-specification:'Montserrat, Bold';stroke-width:2.16696"
             d="m -65.98822,3.4488851 12.939262,-1.9812744 c 0.508389,-0.83318264 0.765328,-1.80881815 0.765328,-2.9305705 0,-1.1890948 -0.278174,-2.2126585 -0.835092,-3.0706136 -0.556917,-0.8579541 -1.34739,-1.5126666 -2.370914,-1.9642212 -1.023526,-0.4666075 -2.242786,-0.7002157 -3.657658,-0.7002157 l -6.840926,5.168e-4 z m 3.657658,-7.6661987 h 2.98018 c 1.128887,0 1.972127,0.2412947 2.529044,0.7229532 0.556919,0.4816596 0.835091,1.1589112 0.835091,2.0319174 0,0.85795507 -0.278172,1.53520678 -0.835091,2.03191728 -0.556917,0.48165852 -1.400157,0.72243652 -2.529044,0.72243652 h -2.98018 z" /><path
             id="path11518"
             style="font-weight:bold;font-size:22.5778px;font-family:Montserrat;-inkscape-font-specification:'Montserrat, Bold';stroke-width:2.16696"
             d="m -81.137683,5.7691569 3.63492,-0.5565552 V 2.0143473 h 7.337537 v -2.84478757 h -7.337537 V -4.2622721 h 8.308537 v -2.9352214 h -11.943457 z" /><path
             id="path11514"
             style="font-weight:bold;font-size:22.5778px;font-family:Montserrat;-inkscape-font-specification:'Montserrat, Bold';stroke-width:2.16696"
             d="m -93.320402,7.6351929 4.768701,-0.7307048 6.104537,-14.1019816 h -3.635437 L -90.96189,4.0907064 -95.768315,-7.1974935 h -3.95118 z" /></g></g></g></g></svg>
