<?xml version="1.0" encoding="UTF-8" standalone="no"?>
<!-- Created with Inkscape (http://www.inkscape.org/) -->

<svg
   width="251.10501mm"
   height="69.766586mm"
   viewBox="0 0 251.10502 69.766586"
   version="1.1"
   id="svg312"
   xml:space="preserve"
   inkscape:version="1.2.2 (732a01da63, 2022-12-09)"
   sodipodi:docname="YY_versus_color.svg"
   xmlns:inkscape="http://www.inkscape.org/namespaces/inkscape"
   xmlns:sodipodi="http://sodipodi.sourceforge.net/DTD/sodipodi-0.dtd"
   xmlns="http://www.w3.org/2000/svg"
   xmlns:svg="http://www.w3.org/2000/svg"><sodipodi:namedview
     id="namedview314"
     pagecolor="#ffffff"
     bordercolor="#000000"
     borderopacity="0.25"
     inkscape:showpageshadow="2"
     inkscape:pageopacity="0.0"
     inkscape:pagecheckerboard="0"
     inkscape:deskcolor="#d1d1d1"
     inkscape:document-units="mm"
     showgrid="false"
     inkscape:zoom="1.0444209"
     inkscape:cx="151.75874"
     inkscape:cy="84.257217"
     inkscape:window-width="1920"
     inkscape:window-height="1009"
     inkscape:window-x="1912"
     inkscape:window-y="-8"
     inkscape:window-maximized="1"
     inkscape:current-layer="layer1" /><defs
     id="defs309" /><g
     inkscape:label="Layer 1"
     inkscape:groupmode="layer"
     id="layer1"
     transform="translate(-38.649298,-113.61671)"><g
       id="g451"
       transform="matrix(-0.12362235,0,0,0.12362235,211.01775,128.44348)"><path
         d="m 1059.0703,-30.524729 h 105.535 v 111.985 h -105.535 z"
         style="fill:#e04f5f;fill-opacity:1"
         id="path2" /><path
         d="m 1054.2993,257.67627 h 105.535 v 111.985 h -105.535 z"
         id="path4" /><path
         d="m 1121.7993,444.16427 c 9.2,-0.5 24.8,-3.5 34.6,-6.7 79.2141,-29.97643 101.8932,-98.84008 96,-151.5 -1.6,-16.1 -9.5,-39.5 -18.2,-54 -2.9,-4.7 -4.3,-8 -3.7,-8.7 0.4,-0.7 8.9,-8.3 18.8,-16.9 9.9,-8.6 19.8,-17.3 22,-19.3 2.2,-2 7.4,-6.5 11.5,-10.1 4.1,-3.6 8.8,-7.7 10.5,-9.2 1.6,-1.4 4,-3.5 5.1,-4.5 29.6,-25.5 30.3,-26.2 28.2,-32.4 -0.5,-1.4 -9.8,-11.4 -20.7,-22.2 -19.4,-19.3 -19.9,-19.7 -24,-19.7 -3,0 -4.8,0.6 -6.4,2.3 -1.2,1.2 -20.4,23 -42.6,48.5 -22.2,25.4 -40.9,46.2 -41.4,46.2 -0.5,0 -2.1,-0.8 -3.5,-1.9 -5.5,-3.8 -21.3,-11.2 -31.3,-14.5 -13.9,-4.7 -24.3,-6.4 -46.7,-7.6 -19.6,-1 -30.1,-2.9 -43.8,-7.6 -7.9,-2.7 -21.2,-9 -29.1,-13.9 l -4.2,-2.5 -14.3,16.2 c -7.9,9 -26.89996,30.6 -42.19996,48.1 -15.2,17.4 -28.6,32.2 -29.6,32.7 -5.2,2.8 -6.5,1.8 -27.7,-19.2 -20.2,-20.2 -22.3,-23 -20.8,-27.7 0.5,-1.7 39.5,-36.6 72,-64.5 4.4,-3.8 11.8,-10.3 16.5,-14.5 4.7,-4.1 8.7,-7.6 8.8,-7.7 0.2,-0.1 -1.5,-3.5 -3.9,-7.5 -39.7616,-90.2101085 -24.9181,-157.97273 97.09996,-211.4 l 7.5,-1.4 -8,0.5 c -55.1,3.7 -113.79996,28 -157.99996,65.4 -10.8,9.2 -30.5,29.5 -39,40.3 -33.2,42 -53.7,92.6 -59.6,146.7 -1.4,13 -1.3,44 0.1,57.5 4.8,45.5 20,87.8 45.1,125.9 10.8,16.6 18.5,26 32.9,41 39.8,41.1 88.3,68.1 143.99996,80 20,4.3 49.9,6.9 68,5.8 z m -22.8,-108.4 c -6.5,-2.4 -14.8,-10.3 -18.3,-17.3 -3.5,-7.2 -3.9,-19.8 -0.9,-27.7 5.6,-15 22.7,-24.8 38.2,-21.9 11.6,2.1 21.6,9.8 26.4,20.4 3.9,8.6 4,19.5 0.2,27.9 -5.3,11.5 -15.7,19.3 -27.6,20.8 -7,0.8 -11.2,0.3 -18,-2.2 z"
         style="fill:#e04f5f;fill-opacity:1"
         id="path8"
         sodipodi:nodetypes="cccccsssccccsccscccccccccccccccccccccccccccccccccc" /><path
         d="m 1103.2133,-119.68373 c -9.2,0.5 -24.8,3.5 -34.6,6.7 -67.0957,33.083278 -104.16559,75.919467 -95.99996,151.5 1.6,16.1 9.5,39.5 18.2,54 2.9,4.7 4.3,8 3.7,8.7 -0.4,0.7 -8.9,8.3 -18.8,16.9 -9.9,8.6 -19.8,17.3 -22,19.3 -2.2,2 -7.4,6.5 -11.5,10.1 -4.1,3.6 -8.8,7.7 -10.5,9.2 -1.6,1.4 -4,3.5 -5.1,4.5 -29.6,25.5 -30.3,26.2 -28.2,32.4 0.5,1.4 9.8,11.4 20.7,22.2 19.4,19.3 19.9,19.7 24,19.7 3,0 4.8,-0.6 6.4,-2.3 1.2,-1.2 20.4,-23 42.6,-48.5 22.19996,-25.4 40.89996,-46.2 41.39996,-46.2 0.5,0 2.1,0.8 3.5,1.9 5.5,3.8 21.3,11.2 31.3,14.5 13.9,4.7 24.3,6.4 46.7,7.6 19.6,1 30.1,2.9 43.8,7.6 7.9,2.7 21.2,9 29.1,13.9 l 4.2,2.5 14.3,-16.2 c 7.9,-9 26.9,-30.6 42.2,-48.1 15.2,-17.4 28.6,-32.2 29.6,-32.7 5.2,-2.8 6.5,-1.8 27.7,19.2 20.2,20.2 22.3,23 20.8,27.7 -0.5,1.7 -39.5,36.6 -72,64.5 -4.4,3.8 -11.8,10.3 -16.5,14.5 -4.7,4.1 -8.7,7.6 -8.8,7.7 16.3933,25.85031 31.8057,68.72122 16.3,125.3 -17.2,49.3 -57.3,83.6 -109.5,93.6 l -7.5,1.4 8,-0.5 c 55.1,-3.7 113.8,-28 158,-65.4 10.8,-9.2 30.5,-29.5 39,-40.3 33.2,-42 53.7,-92.6 59.6,-146.7 1.4,-13 1.3,-44 -0.1,-57.5 -4.8,-45.5 -20,-87.8 -45.1,-125.8999985 -10.8,-16.6 -18.5,-26.0000015 -32.9,-41.0000015 -39.8,-41.1 -88.3,-68.1 -144,-80 -20,-4.3 -49.9,-6.9 -68,-5.8 z m 22.8,108.4 c 6.5,2.4000015 14.8,10.30000147 18.3,17.3000015 3.5,7.1999985 3.9,19.7999985 0.9,27.6999985 -5.6,15 -22.7,24.8 -38.2,21.9 -11.6,-2.1 -21.6,-9.8 -26.4,-20.4 -3.9,-8.6 -4,-19.5 -0.2,-27.8999985 5.3,-11.5 15.7,-19.3000015 27.6,-20.8000015 7,-0.8 11.2,-0.3 18,2.2 z"
         id="path6"
         sodipodi:nodetypes="cccccsssccccsccscccccccccccccccccccccccccccccccccc" /></g><g
       inkscape:label="Layer 1"
       id="layer1-1"
       transform="matrix(1.8233698,0,0,1.8233698,332.45144,178.00066)"><g
         id="g11554"
         transform="translate(-18.117703,-16.619479)"
         style="fill:#ffffff"><path
           id="path396"
           style="font-weight:bold;font-size:22.5778px;font-family:Montserrat;-inkscape-font-specification:'Montserrat, Bold';fill:#e04f5f;fill-opacity:1;stroke-width:2.16696"
           d="m -17.917253,-3.9129395 c -0.1355,0.4325439 -0.205672,0.8878127 -0.205672,1.3668417 0,0.8429021 0.165471,1.5350104 0.496611,2.07687579 0.346199,0.54186646 0.789832,0.97834013 1.331701,1.3094808 0.54186,0.33114071 1.136631,0.60214551 1.783871,0.81287031 0.662269,0.2107258 1.316982,0.3915679 1.964221,0.5420857 0.662279,0.1354669 1.264222,0.2855655 1.806091,0.4511353 0.54186,0.1505188 0.9783414,0.3539012 1.3094811,0.6097819 0.3311497,0.2408288 0.4971273,0.5717694 0.4971273,0.993221 0,0.3311407 -0.10554,0.6246847 -0.3162598,0.8805664 -0.2107298,0.2558818 -0.5416716,0.4592631 -0.9932206,0.6097819 -0.4365,0.1354659 -1.016413,0.2030884 -1.738912,0.2030884 -0.948259,0 -1.888831,-0.1506153 -2.82205,-0.451652 C -15.722423,5.175049 -16.520071,4.7764868 -17.1974,4.2948283 l -1.241785,2.7543538 c 0.70744,0.5418655 1.640841,0.9860268 2.79983,1.3322185 1.158988,0.3311406 2.370571,0.4966105 3.63492,0.4966105 1.505188,0 2.7469748,-0.2259225 3.7253538,-0.6774781 0.993419,-0.4515545 1.7383062,-1.0458144 2.2350057,-1.7833536 0.4967195,-0.7375413 0.7451741,-1.5505528 0.7451741,-2.4386109 0,-0.8278512 -0.1731585,-1.5127885 -0.5193481,-2.0546549 -0.3311397,-0.5418655 -0.7676213,-0.97834015 -1.3094808,-1.30948082 -0.5418695,-0.33114067 -1.143812,-0.59445984 -1.8060913,-0.79013265 -0.6472394,-0.1956748 -1.3019514,-0.36882929 -1.9642214,-0.51934814 -0.647239,-0.15051785 -1.242001,-0.30113321 -1.78387,-0.45165199 -0.54186,-0.1505179 -0.978341,-0.3462155 -1.309481,-0.5870443 -0.33114,-0.2558817 -0.496611,-0.5868214 -0.496611,-0.993221 0,-0.3461917 0.09779,-0.6474223 0.293523,-0.9033041 0.195669,-0.2709327 0.518933,-0.4891705 0.970483,-0.6547404 0.45156,-0.1655708 1.031483,-0.2480468 1.738912,-0.2480468 0.707439,0 1.42977,0.1050162 2.1673095,0.315743 0.7375493,0.1956738 1.4752456,0.504591 2.2127848,0.9260416 l 0.9870199,-2.4287923 z" /><path
           id="path11532"
           style="font-weight:bold;font-size:22.5778px;font-family:Montserrat;-inkscape-font-specification:'Montserrat, Bold';fill:#e04f5f;fill-opacity:1;stroke-width:2.16696"
           d="m -35.124471,-1.2774414 v 2.9305705 c 0,2.3179827 0.632166,4.1017918 1.896525,5.3510945 1.264349,1.2493018 3.017933,1.8737875 5.260661,1.8737875 2.242728,0 3.996312,-0.6244857 5.260661,-1.8737875 1.264358,-1.2493027 1.896525,-3.0331118 1.896525,-5.3510945 v -5.1232015 l -3.612183,0.5534546 v 4.4343546 c 0,1.5051835 -0.308912,2.588683 -0.926042,3.2509644 -0.617119,0.6622803 -1.482385,0.9937378 -2.596224,0.9937378 -1.113828,0 -1.979104,-0.3314575 -2.596223,-0.9937378 -0.61713,-0.6622814 -0.926042,-1.7457809 -0.926042,-3.2509644 v -3.3553507 z" /><path
           id="path11528"
           style="font-weight:bold;font-size:22.5778px;font-family:Montserrat;-inkscape-font-specification:'Montserrat, Bold';fill:#e04f5f;fill-opacity:1;stroke-width:2.16696"
           d="m -48.574296,0.78238118 c 0.02865,0.018473 0.05449,0.0400175 0.08372,0.0578776 0.541865,0.33114072 1.136641,0.60214552 1.78387,0.81287032 0.66228,0.2107258 1.317002,0.3915679 1.964221,0.5420857 0.66229,0.1354669 1.264222,0.2855655 1.806092,0.4511353 0.541869,0.1505188 0.978341,0.3539012 1.30948,0.6097819 0.33114,0.2408288 0.497128,0.5717694 0.497128,0.993221 0,0.3311407 -0.10553,0.6246847 -0.31626,0.8805664 -0.21072,0.2558818 -0.541661,0.4592631 -0.993221,0.6097819 -0.4365,0.1354659 -1.016423,0.2030884 -1.738912,0.2030884 -0.948269,0 -1.888831,-0.1506153 -2.82205,-0.451652 -0.91816,-0.3160887 -1.715802,-0.7146509 -2.393136,-1.1963094 l -1.241784,2.7543538 c 0.707436,0.5418655 1.640838,0.9860268 2.799829,1.3322185 1.158988,0.3311406 2.370571,0.4966105 3.63492,0.4966105 1.505189,0 2.746995,-0.2259225 3.725354,-0.6774781 0.993429,-0.4515545 1.738296,-1.0458144 2.235006,-1.7833536 0.496709,-0.7375413 0.745174,-1.5505528 0.745174,-2.4386109 0,-0.8278512 -0.173158,-1.5127885 -0.519348,-2.0546549 -0.33114,-0.5418655 -0.767621,-0.97834016 -1.309481,-1.30948083 -0.541869,-0.33114067 -1.143812,-0.59445984 -1.806091,-0.79013265 -0.138252,-0.0417973 -0.278093,-0.0785979 -0.417029,-0.11833903 z" /><path
           id="path11524"
           style="font-weight:bold;font-size:22.5778px;font-family:Montserrat;-inkscape-font-specification:'Montserrat, Bold';fill:#e04f5f;fill-opacity:1;stroke-width:2.16696"
           d="m -65.98822,3.4488851 v 5.1583415 h 3.657658 V 4.2043945 h 3.183268 c 0.05785,0 0.114884,-0.00126 0.172082,-0.00207 l 3.034441,4.4043823 h 3.950663 l -3.530534,-5.0668742 c 0.01031,-0.0045 0.02074,-0.0089 0.03101,-0.013436 1.023524,-0.4515555 1.813997,-1.0985804 2.370914,-1.9414835 0.02481,-0.038213 0.04606,-0.078466 0.06976,-0.1173055 z" /><path
           id="path11520"
           style="font-weight:bold;font-size:22.5778px;font-family:Montserrat;-inkscape-font-specification:'Montserrat, Bold';fill:#e04f5f;fill-opacity:1;stroke-width:2.16696"
           d="m -81.137683,5.7691569 v 2.8380697 h 12.236979 V 5.6720052 h -8.602059 V 5.2126017 Z" /><path
           id="path11516"
           style="font-weight:bold;font-size:22.5778px;font-family:Montserrat;-inkscape-font-specification:'Montserrat, Bold';fill:#e04f5f;fill-opacity:1;stroke-width:2.16696"
           d="m -93.320402,7.6351929 0.419613,0.9720337 h 3.612182 l 0.736906,-1.7027385 z" /></g><g
         id="g11546"
         transform="translate(-18.117699,-17.148646)"><path
           id="path11536"
           style="font-weight:bold;font-size:22.5778px;font-family:Montserrat;-inkscape-font-specification:'Montserrat, Bold';stroke-width:2.16696"
           d="m -17.917253,-3.9129395 11.7992802,-1.8071248 0.1415934,-0.3482991 C -6.7139187,-6.534971 -7.5643258,-6.881283 -8.5276449,-7.1070597 -9.4909639,-7.3478895 -10.469437,-7.468278 -11.462866,-7.468278 c -1.490129,0 -2.731935,0.2259235 -3.725354,0.677478 -0.978369,0.4365036 -1.715559,1.0307615 -2.212268,1.7833537 -0.226178,0.3463335 -0.396807,0.7115778 -0.516765,1.0945068 z" /><path
           id="path11534"
           style="font-weight:bold;font-size:22.5778px;font-family:Montserrat;-inkscape-font-specification:'Montserrat, Bold';stroke-width:2.16696"
           d="m -24.422282,-2.9166178 3.612183,-0.5534546 v -3.7274211 h -3.612183 z" /><path
           id="path11530"
           style="font-weight:bold;font-size:22.5778px;font-family:Montserrat;-inkscape-font-specification:'Montserrat, Bold';stroke-width:2.16696"
           d="m -35.124471,-1.2774414 3.657658,-0.5601725 v -5.3598796 h -3.657658 z" /><path
           id="path11526"
           style="font-weight:bold;font-size:22.5778px;font-family:Montserrat;-inkscape-font-specification:'Montserrat, Bold';stroke-width:2.16696"
           d="m -48.574296,0.78238118 7.027478,-1.07642008 c -0.511493,-0.14630755 -1.02638,-0.28264202 -1.547192,-0.40100911 -0.64723,-0.15051785 -1.242001,-0.30113321 -1.783871,-0.45165199 -0.541859,-0.1505179 -0.978341,-0.3462155 -1.309481,-0.5870443 -0.331139,-0.2558817 -0.49661,-0.5868214 -0.49661,-0.993221 0,-0.3461917 0.0979,-0.6474223 0.293522,-0.9033041 0.19568,-0.2709327 0.518924,-0.4891705 0.970483,-0.6547404 0.45155,-0.1655708 1.031473,-0.2480468 1.738912,-0.2480468 0.70743,0 1.429761,0.1050162 2.16731,0.315743 0.737539,0.1956738 1.475245,0.504591 2.212785,0.9260416 l 1.128613,-2.7770914 c -0.737539,-0.4666076 -1.587946,-0.8129196 -2.551265,-1.0386963 -0.96332,-0.2408298 -1.941803,-0.3612183 -2.935222,-0.3612183 -1.490128,0 -2.731935,0.2259235 -3.725354,0.677478 -0.978373,0.4365036 -1.715557,1.0307615 -2.212268,1.7833537 -0.481659,0.7375403 -0.722436,1.5582374 -0.722436,2.4613485 0,0.8429021 0.165469,1.5350104 0.49661,2.07687579 0.32752,0.51264082 0.745367,0.92757311 1.247986,1.25160319 z" /><path
           id="path11522"
           style="font-weight:bold;font-size:22.5778px;font-family:Montserrat;-inkscape-font-specification:'Montserrat, Bold';stroke-width:2.16696"
           d="m -65.98822,3.4488851 12.939262,-1.9812744 c 0.508389,-0.83318264 0.765328,-1.80881815 0.765328,-2.9305705 0,-1.1890948 -0.278174,-2.2126585 -0.835092,-3.0706136 -0.556917,-0.8579541 -1.34739,-1.5126666 -2.370914,-1.9642212 -1.023526,-0.4666075 -2.242786,-0.7002157 -3.657658,-0.7002157 l -6.840926,5.168e-4 z m 3.657658,-7.6661987 h 2.98018 c 1.128887,0 1.972127,0.2412947 2.529044,0.7229532 0.556919,0.4816596 0.835091,1.1589112 0.835091,2.0319174 0,0.85795507 -0.278172,1.53520678 -0.835091,2.03191728 -0.556917,0.48165852 -1.400157,0.72243652 -2.529044,0.72243652 h -2.98018 z" /><path
           id="path11518"
           style="font-weight:bold;font-size:22.5778px;font-family:Montserrat;-inkscape-font-specification:'Montserrat, Bold';stroke-width:2.16696"
           d="m -81.137683,5.7691569 3.63492,-0.5565552 V 2.0143473 h 7.337537 v -2.84478757 h -7.337537 V -4.2622721 h 8.308537 v -2.9352214 h -11.943457 z" /><path
           id="path11514"
           style="font-weight:bold;font-size:22.5778px;font-family:Montserrat;-inkscape-font-specification:'Montserrat, Bold';stroke-width:2.16696"
           d="m -93.320402,7.6351929 4.768701,-0.7307048 6.104537,-14.1019816 h -3.635437 L -90.96189,4.0907064 -95.768315,-7.1974935 h -3.95118 z" /></g></g></g></svg>
