<svg xmlns="http://www.w3.org/2000/svg" width="682.667" height="682.667" version="1.0" viewBox="0 0 512 512"><path d="M249.5 1.4c-3.9 1.8-7 4.8-9.2 8.9-1.6 2.9-1.8 6.5-1.8 33.9v30.6l3 4.3c3.7 5.2 8.6 7.9 14.5 7.9s10.8-2.7 14.5-7.9l3-4.3V44.2c0-30.2 0-30.8-2.3-34.7-4.4-7.8-14.5-11.5-21.7-8.1zM79.2 72.1c-9.5 4.7-12.3 15.6-6.4 25.1 1.1 1.8 11 12.1 21.9 22.9 14.7 14.5 20.8 19.9 23.6 20.8 13.6 4.5 26.7-9.2 21.7-22.6-1.6-4.1-41.6-44.1-46.5-46.4-5.2-2.4-9-2.4-14.3.2zM418.5 71.9c-4.9 2.3-44.9 42.4-46.5 46.4-2.4 6.5-.5 14.1 4.6 18.9 5 4.7 9.6 5.7 16.9 3.7 3.1-.9 7.9-5 23.8-20.8 10.9-10.8 21-21.5 22.4-23.8 8.5-14.4-6.4-31.6-21.2-24.4zM244 128c-61.1 5.5-110.2 55.1-116 117.2-4.1 45.3 18.3 91.8 56.7 117.4 54.3 36.1 126.2 26.5 167.9-22.4 18.6-21.8 28.8-45.7 31.3-73.4 6.5-69.9-46.2-132.2-117.4-138.8-6-.5-11.7-.9-12.5-.9-.8.1-5.3.5-10 .9zm38.3 38.4c31.6 9.5 53.6 31.4 63.4 63.3 2.5 8.1 2.7 10.1 2.7 26.3 0 16.2-.2 18.2-2.7 26.3-5.1 16.6-13.4 30.4-24.8 41.3-11 10.4-23 17.3-38.6 22.1-8.1 2.5-10.1 2.7-26.3 2.7-16.2 0-18.2-.2-26.3-2.7-31.9-9.8-53.6-31.5-63.4-63.4-2.5-8.1-2.7-10.1-2.7-26.3 0-16.2.2-18.2 2.7-26.3 10.6-34.5 35.3-57.2 70.8-65.2 4.5-1 10.8-1.4 21.4-1.1 12.7.3 16.4.8 23.8 3zM14.4 238.9c-1.7.4-4.4 1.6-6 2.5C-2.8 248-2 265.8 9.7 271.6c3.5 1.7 6.3 1.9 34.5 1.9h30.6l4.3-3c5.2-3.7 7.9-8.6 7.9-14.5s-2.7-10.8-7.9-14.5l-4.3-3-28.6-.2c-15.8-.1-30.1.2-31.8.6zM438.3 238.9c-7.7 1.9-13.3 9.2-13.3 17.3 0 5.7 2.7 10.6 7.9 14.3l4.3 3h30.6c30.2 0 30.8 0 34.7-2.3 6.1-3.5 9-8.4 9-15.2 0-6.8-2.9-11.7-9-15.2-3.9-2.2-4.7-2.3-32.5-2.5-15.7-.1-30 .2-31.7.6zM118.1 371.2c-4.2 1.2-41.9 37.9-45.8 44.5-6.2 10.6-.1 24 12 26 7.3 1.2 9.9-.7 32.6-23.1 11.7-11.6 21.9-22.5 22.7-24.3 2.7-6.3 1.4-13.5-3.4-18.7-4.9-5.2-10.7-6.6-18.1-4.4zM380 372.2c-7.7 3.9-11.4 12.1-9 20.1 1 3.4 5 8.1 21.8 25.1 25.4 25.6 28.9 27.6 39.2 22.4 7.7-3.9 11.4-12.1 9-20.1-1-3.4-5-8.1-21.8-25.1-25.4-25.6-28.9-27.6-39.2-22.4zM248 426.9c-1.9 1-4.8 3.7-6.5 6l-3 4.3v30.6c0 30.2 0 30.8 2.3 34.7 3.5 6.1 8.4 9 15.2 9 6.8 0 11.7-2.9 15.2-9 2.3-3.9 2.3-4.5 2.3-34.7v-30.6l-3-4.3c-3.7-5.2-8.6-7.9-14.5-7.9-2.5 0-6.1.8-8 1.9z"/></svg>